<svg width="13" height="12" viewBox="0 0 13 12" fill="none" xmlns="http://www.w3.org/2000/svg">
<path d="M6.5 5.53297C5.91121 4.38789 4.30842 2.25427 2.81775 1.20235C1.38992 0.194308 0.845542 0.368724 0.488583 0.530683C0.0752917 0.716474 0 1.35131 0 1.72397C0 2.09772 0.20475 4.78439 0.338 5.23343C0.779458 6.71543 2.34921 7.21593 3.79546 7.0556C3.86913 7.04477 3.94442 7.03447 4.02025 7.02527C3.9455 7.03718 3.87075 7.04693 3.79546 7.0556C1.67646 7.36977 -0.205833 8.14164 2.26254 10.8895C4.97792 13.7008 5.98379 10.2866 6.5 8.55602C7.01621 10.2866 7.61042 13.5778 10.6887 10.8895C13 8.55602 11.3235 7.36977 9.20454 7.0556C9.12938 7.04729 9.05443 7.03717 8.97975 7.02527C9.05558 7.03447 9.13088 7.04477 9.20454 7.0556C10.6508 7.21647 12.2205 6.71543 12.662 5.23343C12.7952 4.78493 13 2.09718 13 1.72452C13 1.35077 12.9247 0.716474 12.5114 0.529599C12.1545 0.368183 11.6101 0.193766 10.1823 1.20127C8.69158 2.25481 7.08879 4.38843 6.5 5.53297Z" fill="#006351"/>
</svg>
