<svg width="348" height="35" viewBox="0 0 348 35" fill="none" xmlns="http://www.w3.org/2000/svg">
<mask id="path-1-inside-1_327_1495" fill="white">
<path fill-rule="evenodd" clip-rule="evenodd" d="M13.5 0C6.04416 0 0 6.04416 0 13.5C0 20.9558 6.04415 27 13.5 27H169.036L171.555 34.2723C171.866 35.1692 173.134 35.1692 173.445 34.2723L175.964 27H334.5C341.956 27 348 20.9558 348 13.5C348 6.04416 341.956 0 334.5 0H13.5Z"/>
</mask>
<path fill-rule="evenodd" clip-rule="evenodd" d="M13.5 0C6.04416 0 0 6.04416 0 13.5C0 20.9558 6.04415 27 13.5 27H169.036L171.555 34.2723C171.866 35.1692 173.134 35.1692 173.445 34.2723L175.964 27H334.5C341.956 27 348 20.9558 348 13.5C348 6.04416 341.956 0 334.5 0H13.5Z" fill="#8C97D2"/>
<path d="M169.036 27L169.981 26.6727L169.748 26H169.036V27ZM171.555 34.2723L172.5 33.945L172.5 33.9449L171.555 34.2723ZM173.445 34.2723L174.39 34.5996L174.39 34.5996L173.445 34.2723ZM175.964 27V26H175.252L175.019 26.6727L175.964 27ZM1 13.5C1 6.59644 6.59644 1 13.5 1V-1C5.49187 -1 -1 5.49187 -1 13.5H1ZM13.5 26C6.59644 26 1 20.4036 1 13.5H-1C-1 21.5081 5.49187 28 13.5 28V26ZM169.036 26H13.5V28H169.036V26ZM168.091 27.3273L170.61 34.5996L172.5 33.9449L169.981 26.6727L168.091 27.3273ZM170.61 34.5996C171.231 36.3934 173.768 36.3934 174.39 34.5996L172.5 33.9449L172.5 33.945L170.61 34.5996ZM174.39 34.5996L176.909 27.3273L175.019 26.6727L172.5 33.9449L174.39 34.5996ZM334.5 26H175.964V28H334.5V26ZM347 13.5C347 20.4036 341.404 26 334.5 26V28C342.508 28 349 21.5081 349 13.5H347ZM334.5 1C341.404 1 347 6.59644 347 13.5H349C349 5.49187 342.508 -1 334.5 -1V1ZM13.5 1H334.5V-1H13.5V1Z" fill="#7F8BD1" mask="url(#path-1-inside-1_327_1495)"/>
<path d="M77.9648 9.38672V10.3477C77.959 11.6309 77.9766 13.1133 77.4961 15.3516L76.2188 15.2227C76.4062 14.3672 76.5176 13.6113 76.582 12.9375L70.3359 13.2891L70.1484 12.1758L76.6582 11.9414C76.6816 11.3906 76.6875 10.8984 76.6875 10.4414H70.4766V9.38672H77.9648ZM69.3516 17.7422V16.6641H72.9141V14.0508H74.2031V16.6641H79.0078V17.7422H69.3516ZM88.5352 8.44922V19.0547H87.2227V8.44922H88.5352ZM80.3789 16.5V9.41016H85.4883V10.4766H81.6914V15.3984C83.6367 15.3867 84.8613 15.334 86.2734 15.082L86.4023 16.1602C84.8848 16.4414 83.5195 16.5 81.2812 16.5H80.3789ZM101.754 8.44922V19.0547H100.441V8.44922H101.754ZM93.2812 12.9609C93.2754 10.6758 94.4414 9.22266 96.0469 9.22266C97.6348 9.22266 98.8066 10.6758 98.8125 12.9609C98.8066 15.2637 97.6348 16.7109 96.0469 16.7109C94.4414 16.7109 93.2754 15.2637 93.2812 12.9609ZM94.5352 12.9609C94.5352 14.5898 95.1504 15.5332 96.0469 15.5391C96.9375 15.5332 97.5469 14.5898 97.5469 12.9609C97.5469 11.3438 96.9375 10.3945 96.0469 10.3945C95.1504 10.3945 94.5352 11.3438 94.5352 12.9609ZM108.914 9.44531V16.4648H103.875V9.44531H108.914ZM105.164 15.4219H107.648V10.4648H105.164V15.4219ZM110.812 19.0547V8.44922H112.125V19.0547H110.812ZM117.68 11.4609C117.68 13.1953 118.699 15.0234 120.41 15.7383L119.695 16.7695C118.441 16.2246 117.527 15.1172 117.041 13.7695C116.555 15.2227 115.623 16.4414 114.387 17.0273L113.637 16.0078C115.307 15.2344 116.35 13.2598 116.355 11.4609V10.5703H114.023V9.49219H120V10.5703H117.68V11.4609ZM121.184 19.043V8.44922H122.496V19.043H121.184ZM129.809 18.1172C128.074 18.123 127.008 17.0977 127.008 15.75C127.008 14.748 127.652 14.1387 128.602 13.4824C128.115 12.8789 127.734 12.2578 127.734 11.5078C127.734 10.3008 128.613 9.41016 129.949 9.41016C131.285 9.41016 132.111 10.2949 132.105 11.332C132.111 12.1406 131.689 12.7559 130.98 13.2656L130.441 13.6641L131.994 15.4863C132.217 15.0645 132.352 14.5664 132.352 14.0039H133.641C133.635 15.1699 133.312 15.9961 132.902 16.5469L134.145 18H132.527L131.982 17.3789C131.379 17.8887 130.553 18.123 129.809 18.1172ZM128.473 15.6797C128.473 16.3535 129.018 16.8926 129.855 16.8984C130.307 16.8984 130.77 16.7344 131.168 16.4473L129.404 14.4199L129.27 14.5195C128.695 14.9414 128.473 15.3867 128.473 15.6797ZM129.059 11.5312C129.064 11.918 129.322 12.3105 129.674 12.75L130.16 12.4219C130.605 12.1348 130.84 11.8301 130.84 11.4023C130.84 11.0332 130.512 10.6348 129.973 10.6406C129.434 10.6348 129.064 11.0684 129.059 11.5312ZM140.215 9.22266C141.809 9.22266 142.957 10.6758 142.969 12.9609C142.957 15.2637 141.809 16.7109 140.215 16.7109C138.604 16.7109 137.455 15.2637 137.461 12.9609C137.455 10.6758 138.604 9.22266 140.215 9.22266ZM138.715 12.9609C138.709 14.5898 139.324 15.5332 140.215 15.5391C141.111 15.5332 141.709 14.5898 141.715 12.9609C141.709 11.3438 141.111 10.3945 140.215 10.3945C139.324 10.3945 138.709 11.3438 138.715 12.9609ZM144.363 19.043V8.44922H145.664V12.5156H147.293V13.6172H145.664V19.043H144.363ZM156.551 8.44922V19.0547H155.238V8.44922H156.551ZM148.078 12.9609C148.072 10.6758 149.238 9.22266 150.844 9.22266C152.432 9.22266 153.604 10.6758 153.609 12.9609C153.604 15.2637 152.432 16.7109 150.844 16.7109C149.238 16.7109 148.072 15.2637 148.078 12.9609ZM149.332 12.9609C149.332 14.5898 149.947 15.5332 150.844 15.5391C151.734 15.5332 152.344 14.5898 152.344 12.9609C152.344 11.3438 151.734 10.3945 150.844 10.3945C149.947 10.3945 149.332 11.3438 149.332 12.9609ZM162.586 9.10547V10.1602H159.809V11.1562H162.188V12.1641H159.809V13.2539C161.074 13.2422 161.953 13.1895 162.984 13.0078L163.125 14.0273C161.9 14.25 160.893 14.2969 159.258 14.2969H158.555V9.10547H162.586ZM160.02 18.9141V15.2344H167.168V18.9141H160.02ZM161.32 17.8594H165.879V16.2656H161.32V17.8594ZM162.645 12.0938V11.0391H163.84V8.625H165.082V14.707H163.84V12.0938H162.645ZM165.926 14.7891V8.44922H167.168V14.7891H165.926ZM180.996 13.3594V14.4258H171.328V13.3594H180.996ZM172.453 17.0859C172.453 15.8555 173.842 15.1582 176.145 15.1641C178.43 15.1582 179.807 15.8555 179.812 17.0859C179.807 18.334 178.43 19.0312 176.145 19.0312C173.842 19.0312 172.453 18.334 172.453 17.0859ZM172.512 12.5273V8.78906H179.824V9.84375H173.812V11.4844H179.883V12.5273H172.512ZM173.777 17.0859C173.771 17.7129 174.604 18.0234 176.145 18.0234C177.662 18.0234 178.5 17.7129 178.512 17.0859C178.5 16.4883 177.662 16.1602 176.145 16.1602C174.604 16.1602 173.771 16.4883 173.777 17.0859ZM191.367 14.1797V15.2344H181.688V14.1797H185.883V13.3008H182.918V10.4883H188.871V9.70312H182.883V8.68359H190.172V11.4375H184.207V12.2812H190.383V13.3008H187.172V14.1797H191.367ZM182.766 16.9336V15.9023H190.23V18.9727H188.918V16.9336H182.766Z" fill="white"/>
<path d="M198.708 14H206.292M206.292 14L202.5 10.2084M206.292 14L202.5 17.7917" stroke="white" stroke-linecap="round" stroke-linejoin="round"/>
<path d="M221.648 8.44922V12.4688H223.277V13.5352H221.648V19.0547H220.348V8.44922H221.648ZM213.785 16.4648V9.45703H218.742V10.5117H215.086V15.375C216.732 15.3691 218.039 15.2871 219.492 15.0352L219.645 16.1367C217.998 16.418 216.574 16.4648 214.664 16.4648H213.785ZM233.391 13.6875V14.7305H229.301V16.6758H227.977V14.7305H223.711V13.6875H233.391ZM224.742 10.8516C224.736 9.52148 226.26 8.68359 228.539 8.68359C230.83 8.68359 232.336 9.52148 232.336 10.8516C232.336 12.1875 230.83 13.0137 228.539 13.0078C226.26 13.0137 224.736 12.1875 224.742 10.8516ZM224.895 18.832V15.6914H226.207V17.7656H232.324V18.832H224.895ZM226.148 10.8516C226.137 11.5547 227.086 11.9648 228.539 11.9648C230.004 11.9648 230.947 11.5547 230.941 10.8516C230.947 10.125 230.004 9.71484 228.539 9.71484C227.086 9.71484 226.137 10.125 226.148 10.8516ZM243.773 16.7344V17.8125H234.094V16.7344H238.266V15.0117H235.242V11.543H241.336V10.2305H235.219V9.17578H242.625V12.5742H236.543V13.9453H242.871V15.0117H239.555V16.7344H243.773ZM253.066 13.418V14.4609H245.637V9.375H252.984V10.4297H246.926V13.418H253.066ZM244.465 17.6953V16.6172H254.145V17.6953H244.465ZM265.98 8.44922V12.5859H267.551V13.6758H265.98V19.0195H264.68V8.44922H265.98ZM257.625 16.125C260.203 14.8359 261.598 13.043 261.855 10.6289H258.199V9.55078H263.18C263.174 12.6621 261.885 15.3984 258.363 17.1328L257.625 16.125ZM276.621 11.2031V12.2578H269.309V8.63672H270.609V11.2031H276.621ZM268.055 14.332V13.2773H277.723V14.332H268.055ZM269.18 17.0508C269.18 15.8027 270.568 15.0996 272.871 15.0938C275.156 15.0996 276.533 15.8027 276.539 17.0508C276.533 18.293 275.156 18.9961 272.871 18.9961C270.568 18.9961 269.18 18.293 269.18 17.0508ZM270.504 17.0508C270.498 17.6602 271.33 17.9941 272.871 18C274.389 17.9941 275.227 17.6602 275.238 17.0508C275.227 16.4238 274.389 16.1191 272.871 16.1133C271.33 16.1191 270.498 16.4238 270.504 17.0508Z" fill="white"/>
</svg>
