<svg width="16" height="16" viewBox="0 0 16 16" fill="none" xmlns="http://www.w3.org/2000/svg">
<path d="M5.9374 15.5L5.6374 13.1C5.4749 13.0375 5.32178 12.9625 5.17803 12.875C5.03428 12.7875 4.89365 12.6937 4.75615 12.5937L2.5249 13.5312L0.462402 9.96875L2.39365 8.50625C2.38115 8.41875 2.3749 8.33437 2.3749 8.25312V7.74687C2.3749 7.66562 2.38115 7.58125 2.39365 7.49375L0.462402 6.03125L2.5249 2.46875L4.75615 3.40625C4.89365 3.30625 5.0374 3.2125 5.1874 3.125C5.3374 3.0375 5.4874 2.9625 5.6374 2.9L5.9374 0.5H10.0624L10.3624 2.9C10.5249 2.9625 10.678 3.0375 10.8218 3.125C10.9655 3.2125 11.1062 3.30625 11.2437 3.40625L13.4749 2.46875L15.5374 6.03125L13.6062 7.49375C13.6187 7.58125 13.6249 7.66562 13.6249 7.74687V8.25312C13.6249 8.33437 13.6124 8.41875 13.5874 8.50625L15.5187 9.96875L13.4562 13.5312L11.2437 12.5937C11.1062 12.6937 10.9624 12.7875 10.8124 12.875C10.6624 12.9625 10.5124 13.0375 10.3624 13.1L10.0624 15.5H5.9374ZM8.0374 10.625C8.7624 10.625 9.38115 10.3687 9.89365 9.85625C10.4062 9.34375 10.6624 8.725 10.6624 8C10.6624 7.275 10.4062 6.65625 9.89365 6.14375C9.38115 5.63125 8.7624 5.375 8.0374 5.375C7.2999 5.375 6.67803 5.63125 6.17178 6.14375C5.66553 6.65625 5.4124 7.275 5.4124 8C5.4124 8.725 5.66553 9.34375 6.17178 9.85625C6.67803 10.3687 7.2999 10.625 8.0374 10.625Z" fill="#628D85"/>
</svg>
