<svg width="15" height="15" viewBox="0 0 15 15" fill="none" xmlns="http://www.w3.org/2000/svg">
<g clip-path="url(#clip0_323_1630)">
<rect width="15" height="15" fill="#EFEFFD"/>
<path d="M5.68125 5.625C5.82819 5.20729 6.11822 4.85507 6.49997 4.63071C6.88172 4.40635 7.33056 4.32434 7.76699 4.3992C8.20341 4.47405 8.59926 4.70095 8.88442 5.03971C9.16959 5.37846 9.32566 5.8072 9.325 6.25C9.325 7.5 7.45 8.125 7.45 8.125M7.5 10.625H7.50625M13.75 7.5C13.75 10.9518 10.9518 13.75 7.5 13.75C4.04822 13.75 1.25 10.9518 1.25 7.5C1.25 4.04822 4.04822 1.25 7.5 1.25C10.9518 1.25 13.75 4.04822 13.75 7.5Z" stroke="#717BBC" stroke-width="1.3" stroke-linecap="round" stroke-linejoin="round"/>
</g>
<defs>
<clipPath id="clip0_323_1630">
<rect width="15" height="15" fill="white"/>
</clipPath>
</defs>
</svg>
