<svg width="1075" height="113" viewBox="0 0 1075 113" fill="none" xmlns="http://www.w3.org/2000/svg">
<mask id="path-1-inside-1_872_1996" fill="white">
<path fill-rule="evenodd" clip-rule="evenodd" d="M161 0C150.507 0 142 8.50659 142 19V67.7793C142 72.1976 138.418 75.7793 134 75.7793H12C5.37258 75.7793 0 81.1519 0 87.7793V95.7793C0 102.407 5.37261 107.779 12 107.779H1063C1069.63 107.779 1075 102.407 1075 95.7793V87.7793C1075 81.1519 1069.63 75.7793 1063 75.7793H644.573C642.585 75.7793 640.816 74.6106 639.665 72.9907V72.9907L593.453 7.99068C589.889 2.9776 584.118 0 577.968 0H161Z"/>
</mask>
<path fill-rule="evenodd" clip-rule="evenodd" d="M161 0C150.507 0 142 8.50659 142 19V67.7793C142 72.1976 138.418 75.7793 134 75.7793H12C5.37258 75.7793 0 81.1519 0 87.7793V95.7793C0 102.407 5.37261 107.779 12 107.779H1063C1069.63 107.779 1075 102.407 1075 95.7793V87.7793C1075 81.1519 1069.63 75.7793 1063 75.7793H644.573C642.585 75.7793 640.816 74.6106 639.665 72.9907V72.9907L593.453 7.99068C589.889 2.9776 584.118 0 577.968 0H161Z" fill="#FFFDEB"/>
<path d="M593.453 7.99068L594.268 7.41124L594.268 7.41124L593.453 7.99068ZM143 19C143 9.05887 151.059 1 161 1V-1C149.954 -1 141 7.9543 141 19H143ZM143 67.7793V19H141V67.7793H143ZM12 76.7793H134V74.7793H12V76.7793ZM1 87.7793C1 81.7042 5.92487 76.7793 12 76.7793V74.7793C4.8203 74.7793 -1 80.5996 -1 87.7793H1ZM1 95.7793V87.7793H-1V95.7793H1ZM12 106.779C5.92489 106.779 1 101.854 1 95.7793H-1C-1 102.959 4.82033 108.779 12 108.779V106.779ZM1063 106.779H12V108.779H1063V106.779ZM1074 95.7793C1074 101.854 1069.08 106.779 1063 106.779V108.779C1070.18 108.779 1076 102.959 1076 95.7793H1074ZM1074 87.7793V95.7793H1076V87.7793H1074ZM1063 76.7793C1069.08 76.7793 1074 81.7042 1074 87.7793H1076C1076 80.5996 1070.18 74.7793 1063 74.7793V76.7793ZM644.573 76.7793H1063V74.7793H644.573V76.7793ZM592.638 8.57012L638.85 73.5701L640.48 72.4113L594.268 7.41124L592.638 8.57012ZM577.968 1C583.795 1 589.261 3.82088 592.638 8.57012L594.268 7.41124C590.516 2.13431 584.442 -1 577.968 -1V1ZM161 1H577.968V-1H161V1ZM644.573 74.7793C642.992 74.7793 641.498 73.8431 640.48 72.4113L638.85 73.5701C640.135 75.3781 642.178 76.7793 644.573 76.7793V74.7793ZM141 67.7793C141 71.6453 137.866 74.7793 134 74.7793V76.7793C138.971 76.7793 143 72.7499 143 67.7793H141Z" fill="#006351" mask="url(#path-1-inside-1_872_1996)"/>
<path d="M178.309 62.3782C175.646 62.3782 173.311 61.6732 171.306 60.2632C169.332 58.8532 167.797 56.8792 166.7 54.3412C165.603 51.8032 165.055 48.8265 165.055 45.4112C165.055 42.0272 165.619 39.0662 166.747 36.5282C167.875 33.9902 169.426 32.0319 171.4 30.6532C173.405 29.2432 175.74 28.5382 178.403 28.5382C181.098 28.5382 183.432 29.2432 185.406 30.6532C187.411 32.0632 188.947 34.0372 190.012 36.5752C191.109 39.1132 191.657 42.0742 191.657 45.4582C191.657 48.8735 191.093 51.8502 189.965 54.3882C188.837 56.9262 187.27 58.9002 185.265 60.3102C183.291 61.6889 180.972 62.3782 178.309 62.3782ZM178.356 57.5842C180.017 57.5842 181.458 57.1142 182.68 56.1742C183.902 55.2029 184.842 53.8085 185.5 51.9912C186.189 50.1739 186.534 47.9962 186.534 45.4582C186.534 42.8889 186.189 40.7112 185.5 38.9252C184.842 37.1079 183.902 35.7292 182.68 34.7892C181.458 33.8179 180.017 33.3322 178.356 33.3322C176.727 33.3322 175.301 33.8179 174.079 34.7892C172.857 35.7292 171.901 37.1079 171.212 38.9252C170.523 40.7112 170.178 42.8889 170.178 45.4582C170.178 47.9962 170.523 50.1739 171.212 51.9912C171.901 53.8085 172.857 55.2029 174.079 56.1742C175.301 57.1142 176.727 57.5842 178.356 57.5842ZM196.206 61.9082V57.7252C196.206 55.9705 196.425 54.4822 196.864 53.2602C197.302 52.0069 198.023 50.8945 199.026 49.9232C200.028 48.9205 201.329 47.9335 202.927 46.9622L207.439 44.1892C209.287 43.0612 210.619 42.0115 211.434 41.0402C212.28 40.0689 212.703 38.9409 212.703 37.6562C212.703 36.2775 212.233 35.1809 211.293 34.3662C210.353 33.5515 208.974 33.1442 207.157 33.1442C205.841 33.1442 204.587 33.2695 203.397 33.5202C202.237 33.7709 200.953 34.1312 199.543 34.6012L197.475 35.3062L196.159 31.8752L198.133 30.9352C199.856 30.1205 201.548 29.5252 203.209 29.1492C204.869 28.7419 206.483 28.5382 208.05 28.5382C210.086 28.5382 211.825 28.8829 213.267 29.5722C214.739 30.2615 215.867 31.2642 216.651 32.5802C217.465 33.8962 217.873 35.5099 217.873 37.4212C217.873 38.8939 217.575 40.2412 216.98 41.4632C216.416 42.6852 215.585 43.8132 214.489 44.8472C213.392 45.8812 212.06 46.8682 210.494 47.8082L205.559 50.7692C204.117 51.6152 203.021 52.4925 202.269 53.4012C201.548 54.3099 201.188 55.5789 201.188 57.2082V58.4302L200.577 57.2082H218.39V61.9082H196.206ZM255.454 62.3782C251.412 62.3782 247.95 61.7045 245.067 60.3572C242.216 59.0099 240.023 57.0672 238.487 54.5292C236.983 51.9912 236.231 48.9519 236.231 45.4112C236.231 42.6539 236.701 40.2255 237.641 38.1262C238.581 36.0269 239.882 34.2722 241.542 32.8622C243.234 31.4209 245.193 30.3399 247.417 29.6192C249.642 28.8985 252.008 28.5382 254.514 28.5382C255.987 28.5382 257.46 28.6792 258.932 28.9612C260.436 29.2119 261.893 29.6035 263.303 30.1362L264.807 30.7002L263.867 34.6012L262.128 34.1782C260.812 33.8335 259.528 33.5829 258.274 33.4262C257.021 33.2382 255.815 33.1442 254.655 33.1442C252.117 33.1442 249.846 33.5985 247.84 34.5072C245.835 35.4159 244.253 36.7789 243.093 38.5962C241.934 40.4135 241.354 42.7009 241.354 45.4582C241.354 48.1529 241.903 50.4402 242.999 52.3202C244.127 54.1689 245.741 55.5789 247.84 56.5502C249.971 57.4902 252.525 57.9602 255.501 57.9602C256.535 57.9602 257.632 57.8819 258.791 57.7252C259.951 57.5685 261.094 57.3335 262.222 57.0202V48.3722H252.305V43.9542H267.204V59.5582C266.076 60.0909 264.854 60.5765 263.538 61.0152C262.254 61.4539 260.922 61.7829 259.543 62.0022C258.165 62.2529 256.802 62.3782 255.454 62.3782ZM274.457 61.9082V29.0082H298.662V33.4262H279.439V42.8732H296.782V47.2912H279.439V57.4902H298.991V61.9082H274.457ZM305.255 61.9082V29.0082H309.626L329.319 52.5082H329.413V29.0082H334.395V61.9082H330.494L310.284 37.6562H310.19V61.9082H305.255ZM342.754 61.9082V29.0082H366.959V33.4262H347.736V42.8732H365.079V47.2912H347.736V57.4902H367.288V61.9082H342.754ZM373.552 61.9082V29.0082H387.887C390.268 29.0082 392.321 29.3999 394.044 30.1832C395.767 30.9352 397.099 32.0319 398.039 33.4732C399.01 34.9145 399.496 36.6849 399.496 38.7842C399.496 40.4449 399.198 41.9175 398.603 43.2022C398.008 44.4869 397.146 45.5679 396.018 46.4452C394.921 47.2912 393.574 47.9492 391.976 48.4192C390.378 48.8579 388.561 49.0772 386.524 49.0772H378.534V61.9082H373.552ZM395.548 61.9082L387.088 48.2782L391.835 47.2442L401.141 61.9082H395.548ZM378.534 44.7062H387.558C389.72 44.7062 391.396 44.2049 392.587 43.2022C393.809 42.1682 394.42 40.6955 394.42 38.7842C394.42 36.9669 393.809 35.6195 392.587 34.7422C391.396 33.8649 389.673 33.4262 387.417 33.4262H378.534V44.7062ZM402.885 61.9082L415.904 29.0082H421.826L434.939 61.9082H429.44L418.912 34.1782H418.771L408.055 61.9082H402.885ZM410.076 54.6232V50.2052H427.56V54.6232H410.076ZM444.399 61.9082V33.4262H432.696V29.0082H461.037V33.4262H449.428V61.9082H444.399ZM479.697 62.3782C476.376 62.3782 473.478 61.6732 471.002 60.2632C468.527 58.8219 466.6 56.8322 465.221 54.2942C463.843 51.7249 463.153 48.7639 463.153 45.4112C463.153 42.0899 463.843 39.1602 465.221 36.6222C466.631 34.0842 468.59 32.1102 471.096 30.7002C473.603 29.2589 476.47 28.5382 479.697 28.5382C483.05 28.5382 485.964 29.2589 488.439 30.7002C490.946 32.1102 492.889 34.0999 494.267 36.6692C495.646 39.2072 496.335 42.1369 496.335 45.4582C496.335 48.7795 495.63 51.7249 494.22 54.2942C492.81 56.8322 490.852 58.8219 488.345 60.2632C485.87 61.6732 482.987 62.3782 479.697 62.3782ZM479.697 57.7722C481.985 57.7722 483.99 57.2865 485.713 56.3152C487.437 55.3125 488.784 53.8869 489.755 52.0382C490.727 50.1895 491.212 47.9805 491.212 45.4112C491.212 42.8732 490.727 40.6955 489.755 38.8782C488.815 37.0295 487.484 35.6195 485.76 34.6482C484.037 33.6455 482.016 33.1442 479.697 33.1442C477.473 33.1442 475.499 33.6455 473.775 34.6482C472.052 35.6195 470.705 37.0295 469.733 38.8782C468.762 40.6955 468.276 42.8889 468.276 45.4582C468.276 47.9962 468.746 50.1895 469.686 52.0382C470.658 53.8869 472.005 55.3125 473.728 56.3152C475.452 57.2865 477.441 57.7722 479.697 57.7722ZM503.078 61.9082V29.0082H517.413C519.794 29.0082 521.846 29.3999 523.57 30.1832C525.293 30.9352 526.625 32.0319 527.565 33.4732C528.536 34.9145 529.022 36.6849 529.022 38.7842C529.022 40.4449 528.724 41.9175 528.129 43.2022C527.533 44.4869 526.672 45.5679 525.544 46.4452C524.447 47.2912 523.1 47.9492 521.502 48.4192C519.904 48.8579 518.086 49.0772 516.05 49.0772H508.06V61.9082H503.078ZM525.074 61.9082L516.614 48.2782L521.361 47.2442L530.667 61.9082H525.074ZM508.06 44.7062H517.084C519.246 44.7062 520.922 44.2049 522.113 43.2022C523.335 42.1682 523.946 40.6955 523.946 38.7842C523.946 36.9669 523.335 35.6195 522.113 34.7422C520.922 33.8649 519.199 33.4262 516.943 33.4262H508.06V44.7062Z" fill="#006351"/>
<mask id="path-4-inside-2_872_1996" fill="white">
<path d="M0 88H1075V113H0V88Z"/>
</mask>
<path d="M0 88H1075V113H0V88Z" fill="#FFFDEB"/>
<path d="M1074 88V113H1076V88H1074ZM1 113V88H-1V113H1Z" fill="#006351" mask="url(#path-4-inside-2_872_1996)"/>
</svg>
