<svg width="1075" height="876" viewBox="0 0 1075 876" fill="none" xmlns="http://www.w3.org/2000/svg">
<mask id="path-1-inside-1_852_2171" fill="white">
<path fill-rule="evenodd" clip-rule="evenodd" d="M208 0C197.507 0 189 8.50659 189 19V67.7791C189 72.1973 185.418 75.7791 181 75.7791H12C5.37258 75.7791 0 81.1516 0 87.779V863.779C0 870.406 5.37261 875.779 12 875.779H1063C1069.63 875.779 1075 870.406 1075 863.779V87.7791C1075 81.1516 1069.63 75.7791 1063 75.7791H691.572C689.585 75.7791 687.816 74.6105 686.665 72.9907V72.9907L640.453 7.99068C636.889 2.9776 631.118 0 624.968 0H208Z"/>
</mask>
<path fill-rule="evenodd" clip-rule="evenodd" d="M208 0C197.507 0 189 8.50659 189 19V67.7791C189 72.1973 185.418 75.7791 181 75.7791H12C5.37258 75.7791 0 81.1516 0 87.779V863.779C0 870.406 5.37261 875.779 12 875.779H1063C1069.63 875.779 1075 870.406 1075 863.779V87.7791C1075 81.1516 1069.63 75.7791 1063 75.7791H691.572C689.585 75.7791 687.816 74.6105 686.665 72.9907V72.9907L640.453 7.99068C636.889 2.9776 631.118 0 624.968 0H208Z" fill="#FFFDEB"/>
<path d="M640.453 7.99068L641.268 7.41124L641.268 7.41124L640.453 7.99068ZM190 19C190 9.05887 198.059 1 208 1V-1C196.954 -1 188 7.9543 188 19H190ZM190 67.7791V19H188V67.7791H190ZM12 76.7791H181V74.7791H12V76.7791ZM1 87.779C1 81.7039 5.92487 76.7791 12 76.7791V74.7791C4.8203 74.7791 -1 80.5993 -1 87.779H1ZM1 863.779V87.779H-1V863.779H1ZM12 874.779C5.92489 874.779 1 869.854 1 863.779H-1C-1 870.959 4.82033 876.779 12 876.779V874.779ZM1063 874.779H12V876.779H1063V874.779ZM1074 863.779C1074 869.854 1069.08 874.779 1063 874.779V876.779C1070.18 876.779 1076 870.959 1076 863.779H1074ZM1074 87.7791V863.779H1076V87.7791H1074ZM1063 76.7791C1069.08 76.7791 1074 81.7039 1074 87.7791H1076C1076 80.5994 1070.18 74.7791 1063 74.7791V76.7791ZM691.572 76.7791H1063V74.7791H691.572V76.7791ZM639.638 8.57012L685.85 73.5701L687.48 72.4113L641.268 7.41124L639.638 8.57012ZM624.968 1C630.795 1 636.261 3.82088 639.638 8.57012L641.268 7.41124C637.516 2.13431 631.442 -1 624.968 -1V1ZM208 1H624.968V-1H208V1ZM691.572 74.7791C689.992 74.7791 688.498 73.843 687.48 72.4113L685.85 73.5701C687.135 75.378 689.178 76.7791 691.572 76.7791V74.7791ZM188 67.7791C188 71.645 184.866 74.7791 181 74.7791V76.7791C185.971 76.7791 190 72.7496 190 67.7791H188Z" fill="#006351" mask="url(#path-1-inside-1_852_2171)"/>
<path d="M227.309 62.3784C224.646 62.3784 222.311 61.6734 220.306 60.2634C218.332 58.8534 216.797 56.8794 215.7 54.3414C214.603 51.8034 214.055 48.8268 214.055 45.4114C214.055 42.0274 214.619 39.0664 215.747 36.5284C216.875 33.9904 218.426 32.0321 220.4 30.6534C222.405 29.2434 224.74 28.5384 227.403 28.5384C230.098 28.5384 232.432 29.2434 234.406 30.6534C236.411 32.0634 237.947 34.0374 239.012 36.5754C240.109 39.1134 240.657 42.0744 240.657 45.4584C240.657 48.8738 240.093 51.8504 238.965 54.3884C237.837 56.9264 236.27 58.9004 234.265 60.3104C232.291 61.6891 229.972 62.3784 227.309 62.3784ZM227.356 57.5844C229.017 57.5844 230.458 57.1144 231.68 56.1744C232.902 55.2031 233.842 53.8088 234.5 51.9914C235.189 50.1741 235.534 47.9964 235.534 45.4584C235.534 42.8891 235.189 40.7114 234.5 38.9254C233.842 37.1081 232.902 35.7294 231.68 34.7894C230.458 33.8181 229.017 33.3324 227.356 33.3324C225.727 33.3324 224.301 33.8181 223.079 34.7894C221.857 35.7294 220.901 37.1081 220.212 38.9254C219.523 40.7114 219.178 42.8891 219.178 45.4584C219.178 47.9964 219.523 50.1741 220.212 51.9914C220.901 53.8088 221.857 55.2031 223.079 56.1744C224.301 57.1144 225.727 57.5844 227.356 57.5844ZM245.206 61.9084V57.7254C245.206 55.9708 245.425 54.4824 245.864 53.2604C246.302 52.0071 247.023 50.8948 248.026 49.9234C249.028 48.9208 250.329 47.9338 251.927 46.9624L256.439 44.1894C258.287 43.0614 259.619 42.0118 260.434 41.0404C261.28 40.0691 261.703 38.9411 261.703 37.6564C261.703 36.2778 261.233 35.1811 260.293 34.3664C259.353 33.5518 257.974 33.1444 256.157 33.1444C254.841 33.1444 253.587 33.2698 252.397 33.5204C251.237 33.7711 249.953 34.1314 248.543 34.6014L246.475 35.3064L245.159 31.8754L247.133 30.9354C248.856 30.1208 250.548 29.5254 252.209 29.1494C253.869 28.7421 255.483 28.5384 257.05 28.5384C259.086 28.5384 260.825 28.8831 262.267 29.5724C263.739 30.2618 264.867 31.2644 265.651 32.5804C266.465 33.8964 266.873 35.5101 266.873 37.4214C266.873 38.8941 266.575 40.2414 265.98 41.4634C265.416 42.6854 264.585 43.8134 263.489 44.8474C262.392 45.8814 261.06 46.8684 259.494 47.8084L254.559 50.7694C253.117 51.6154 252.021 52.4928 251.269 53.4014C250.548 54.3101 250.188 55.5791 250.188 57.2084V58.4304L249.577 57.2084H267.39V61.9084H245.206ZM304.454 62.3784C300.412 62.3784 296.95 61.7048 294.067 60.3574C291.216 59.0101 289.023 57.0674 287.487 54.5294C285.983 51.9914 285.231 48.9521 285.231 45.4114C285.231 42.6541 285.701 40.2258 286.641 38.1264C287.581 36.0271 288.882 34.2724 290.542 32.8624C292.234 31.4211 294.193 30.3401 296.417 29.6194C298.642 28.8988 301.008 28.5384 303.514 28.5384C304.987 28.5384 306.46 28.6794 307.932 28.9614C309.436 29.2121 310.893 29.6038 312.303 30.1364L313.807 30.7004L312.867 34.6014L311.128 34.1784C309.812 33.8338 308.528 33.5831 307.274 33.4264C306.021 33.2384 304.815 33.1444 303.655 33.1444C301.117 33.1444 298.846 33.5988 296.84 34.5074C294.835 35.4161 293.253 36.7791 292.093 38.5964C290.934 40.4138 290.354 42.7011 290.354 45.4584C290.354 48.1531 290.903 50.4404 291.999 52.3204C293.127 54.1691 294.741 55.5791 296.84 56.5504C298.971 57.4904 301.525 57.9604 304.501 57.9604C305.535 57.9604 306.632 57.8821 307.791 57.7254C308.951 57.5688 310.094 57.3338 311.222 57.0204V48.3724H301.305V43.9544H316.204V59.5584C315.076 60.0911 313.854 60.5768 312.538 61.0154C311.254 61.4541 309.922 61.7831 308.543 62.0024C307.165 62.2531 305.802 62.3784 304.454 62.3784ZM323.457 61.9084V29.0084H347.662V33.4264H328.439V42.8734H345.782V47.2914H328.439V57.4904H347.991V61.9084H323.457ZM354.255 61.9084V29.0084H358.626L378.319 52.5084H378.413V29.0084H383.395V61.9084H379.494L359.284 37.6564H359.19V61.9084H354.255ZM391.754 61.9084V29.0084H415.959V33.4264H396.736V42.8734H414.079V47.2914H396.736V57.4904H416.288V61.9084H391.754ZM422.552 61.9084V29.0084H436.887C439.268 29.0084 441.321 29.4001 443.044 30.1834C444.767 30.9354 446.099 32.0321 447.039 33.4734C448.01 34.9148 448.496 36.6851 448.496 38.7844C448.496 40.4451 448.198 41.9178 447.603 43.2024C447.008 44.4871 446.146 45.5681 445.018 46.4454C443.921 47.2914 442.574 47.9494 440.976 48.4194C439.378 48.8581 437.561 49.0774 435.524 49.0774H427.534V61.9084H422.552ZM444.548 61.9084L436.088 48.2784L440.835 47.2444L450.141 61.9084H444.548ZM427.534 44.7064H436.558C438.72 44.7064 440.396 44.2051 441.587 43.2024C442.809 42.1684 443.42 40.6958 443.42 38.7844C443.42 36.9671 442.809 35.6198 441.587 34.7424C440.396 33.8651 438.673 33.4264 436.417 33.4264H427.534V44.7064ZM451.885 61.9084L464.904 29.0084H470.826L483.939 61.9084H478.44L467.912 34.1784H467.771L457.055 61.9084H451.885ZM459.076 54.6234V50.2054H476.56V54.6234H459.076ZM493.399 61.9084V33.4264H481.696V29.0084H510.037V33.4264H498.428V61.9084H493.399ZM528.697 62.3784C525.376 62.3784 522.478 61.6734 520.002 60.2634C517.527 58.8221 515.6 56.8324 514.221 54.2944C512.843 51.7251 512.153 48.7641 512.153 45.4114C512.153 42.0901 512.843 39.1604 514.221 36.6224C515.631 34.0844 517.59 32.1104 520.096 30.7004C522.603 29.2591 525.47 28.5384 528.697 28.5384C532.05 28.5384 534.964 29.2591 537.439 30.7004C539.946 32.1104 541.889 34.1001 543.267 36.6694C544.646 39.2074 545.335 42.1371 545.335 45.4584C545.335 48.7798 544.63 51.7251 543.22 54.2944C541.81 56.8324 539.852 58.8221 537.345 60.2634C534.87 61.6734 531.987 62.3784 528.697 62.3784ZM528.697 57.7724C530.985 57.7724 532.99 57.2868 534.713 56.3154C536.437 55.3128 537.784 53.8871 538.755 52.0384C539.727 50.1898 540.212 47.9808 540.212 45.4114C540.212 42.8734 539.727 40.6958 538.755 38.8784C537.815 37.0298 536.484 35.6198 534.76 34.6484C533.037 33.6458 531.016 33.1444 528.697 33.1444C526.473 33.1444 524.499 33.6458 522.775 34.6484C521.052 35.6198 519.705 37.0298 518.733 38.8784C517.762 40.6958 517.276 42.8891 517.276 45.4584C517.276 47.9964 517.746 50.1898 518.686 52.0384C519.658 53.8871 521.005 55.3128 522.728 56.3154C524.452 57.2868 526.441 57.7724 528.697 57.7724ZM552.078 61.9084V29.0084H566.413C568.794 29.0084 570.846 29.4001 572.57 30.1834C574.293 30.9354 575.625 32.0321 576.565 33.4734C577.536 34.9148 578.022 36.6851 578.022 38.7844C578.022 40.4451 577.724 41.9178 577.129 43.2024C576.533 44.4871 575.672 45.5681 574.544 46.4454C573.447 47.2914 572.1 47.9494 570.502 48.4194C568.904 48.8581 567.086 49.0774 565.05 49.0774H557.06V61.9084H552.078ZM574.074 61.9084L565.614 48.2784L570.361 47.2444L579.667 61.9084H574.074ZM557.06 44.7064H566.084C568.246 44.7064 569.922 44.2051 571.113 43.2024C572.335 42.1684 572.946 40.6958 572.946 38.7844C572.946 36.9671 572.335 35.6198 571.113 34.7424C569.922 33.8651 568.199 33.4264 565.943 33.4264H557.06V44.7064Z" fill="#006351"/>
</svg>
