<svg width="440" height="76" viewBox="0 0 440 76" fill="none" xmlns="http://www.w3.org/2000/svg">
<mask id="path-1-inside-1_888_2024" fill="white">
<path fill-rule="evenodd" clip-rule="evenodd" d="M47 0C36.5066 0 28 8.50659 28 19V42.7869V42.7869C28 43.9682 27.0908 45 25.9095 45H12C5.37258 45 0 50.3726 0 57V64C0 68.4183 3.58171 72 7.99999 72H432C436.418 72 440 68.4183 440 64V57C440 50.3726 434.627 45 428 45H298.453C295.709 45 293.156 43.5931 291.69 41.2728L271.208 8.85218C267.727 3.34143 261.663 0 255.145 0H47Z"/>
</mask>
<path fill-rule="evenodd" clip-rule="evenodd" d="M47 0C36.5066 0 28 8.50659 28 19V42.7869V42.7869C28 43.9682 27.0908 45 25.9095 45H12C5.37258 45 0 50.3726 0 57V64C0 68.4183 3.58171 72 7.99999 72H432C436.418 72 440 68.4183 440 64V57C440 50.3726 434.627 45 428 45H298.453C295.709 45 293.156 43.5931 291.69 41.2728L271.208 8.85218C267.727 3.34143 261.663 0 255.145 0H47Z" fill="#FFFDEB"/>
<path d="M271.208 8.85218L272.054 8.31809L272.054 8.31809L271.208 8.85218ZM291.69 41.2728L290.844 41.8069L291.69 41.2728ZM29 19C29 9.05887 37.0589 1 47 1V-1C35.9543 -1 27 7.9543 27 19H29ZM29 42.7869V19H27V42.7869H29ZM12 46H25.9095V44H12V46ZM1 57C1 50.9249 5.92487 46 12 46V44C4.8203 44 -1 49.8203 -1 57H1ZM1 64V57H-1V64H1ZM432 71H7.99999V73H432V71ZM439 57V64H441V57H439ZM428 46C434.075 46 439 50.9249 439 57H441C441 49.8203 435.18 44 428 44V46ZM298.453 46H428V44H298.453V46ZM270.363 9.38628L290.844 41.8069L292.535 40.7387L272.054 8.31809L270.363 9.38628ZM255.145 1C261.32 1 267.065 4.16557 270.363 9.38628L272.054 8.31809C268.389 2.5173 262.006 -1 255.145 -1V1ZM47 1H255.145V-1H47V1ZM298.453 44C296.052 44 293.818 42.7689 292.535 40.7387L290.844 41.8069C292.493 44.4172 295.366 46 298.453 46V44ZM432 73C436.971 73 441 68.9706 441 64H439C439 67.866 435.866 71 432 71V73ZM-1 64C-1 68.9706 3.02943 73 7.99999 73V71C4.134 71 1 67.866 1 64H-1ZM27 42.7869C27 43.4913 26.466 44 25.9095 44V46C27.7156 46 29 44.445 29 42.7869H27Z" fill="#006351" mask="url(#path-1-inside-1_888_2024)"/>
<path d="M49.757 40.4838C48.0003 40.4838 46.4607 40.0188 45.138 39.0888C43.836 38.1588 42.8233 36.8568 42.1 35.1828C41.3767 33.5088 41.015 31.5455 41.015 29.2928C41.015 27.0608 41.387 25.1078 42.131 23.4338C42.875 21.7598 43.898 20.4682 45.2 19.5588C46.5227 18.6288 48.0623 18.1638 49.819 18.1638C51.5963 18.1638 53.136 18.6288 54.438 19.5588C55.7607 20.4888 56.7733 21.7908 57.476 23.4648C58.1993 25.1388 58.561 27.0918 58.561 29.3238C58.561 31.5765 58.189 33.5398 57.445 35.2138C56.701 36.8878 55.6677 38.1898 54.345 39.1198C53.043 40.0292 51.5137 40.4838 49.757 40.4838ZM49.788 37.3218C50.8833 37.3218 51.834 37.0118 52.64 36.3918C53.446 35.7512 54.066 34.8315 54.5 33.6328C54.9547 32.4342 55.182 30.9978 55.182 29.3238C55.182 27.6292 54.9547 26.1928 54.5 25.0148C54.066 23.8162 53.446 22.9068 52.64 22.2868C51.834 21.6462 50.8833 21.3258 49.788 21.3258C48.7133 21.3258 47.773 21.6462 46.967 22.2868C46.161 22.9068 45.5307 23.8162 45.076 25.0148C44.6213 26.1928 44.394 27.6292 44.394 29.3238C44.394 30.9978 44.6213 32.4342 45.076 33.6328C45.5307 34.8315 46.161 35.7512 46.967 36.3918C47.773 37.0118 48.7133 37.3218 49.788 37.3218ZM65.9819 40.1738V22.1938L61.2699 23.2168L60.5879 20.7058L66.3229 18.4738H69.2679V40.1738H65.9819ZM95.1303 40.4838C92.4643 40.4838 90.1807 40.0395 88.2793 39.1508C86.3987 38.2622 84.952 36.9808 83.9393 35.3068C82.9473 33.6328 82.4513 31.6282 82.4513 29.2928C82.4513 27.4742 82.7613 25.8725 83.3813 24.4878C84.0013 23.1032 84.859 21.9458 85.9543 21.0158C87.0703 20.0652 88.362 19.3522 89.8293 18.8768C91.2967 18.4015 92.857 18.1638 94.5103 18.1638C95.4817 18.1638 96.453 18.2568 97.4243 18.4428C98.4163 18.6082 99.3773 18.8665 100.307 19.2178L101.299 19.5898L100.679 22.1628L99.5323 21.8838C98.6643 21.6565 97.817 21.4912 96.9903 21.3878C96.1637 21.2638 95.368 21.2018 94.6033 21.2018C92.9293 21.2018 91.431 21.5015 90.1083 22.1008C88.7857 22.7002 87.742 23.5992 86.9773 24.7978C86.2127 25.9965 85.8303 27.5052 85.8303 29.3238C85.8303 31.1012 86.192 32.6098 86.9153 33.8498C87.6593 35.0692 88.7237 35.9992 90.1083 36.6398C91.5137 37.2598 93.198 37.5698 95.1613 37.5698C95.8433 37.5698 96.5667 37.5182 97.3313 37.4148C98.096 37.3115 98.8503 37.1565 99.5943 36.9498V31.2458H93.0533V28.3318H102.88V38.6238C102.136 38.9752 101.33 39.2955 100.462 39.5848C99.615 39.8742 98.7367 40.0912 97.8273 40.2358C96.918 40.4012 96.019 40.4838 95.1303 40.4838ZM105.184 40.1738L113.771 18.4738H117.677L126.326 40.1738H122.699L115.755 21.8838H115.662L108.594 40.1738H105.184ZM109.927 35.3688V32.4548H121.459V35.3688H109.927ZM129.37 40.1738V18.4738H132.656V37.2598H144.591V40.1738H129.37ZM148.14 40.1738V18.4738H151.426V37.2598H163.361V40.1738H148.14ZM166.909 40.1738V18.4738H182.874V21.3878H170.195V27.6188H181.634V30.5328H170.195V37.2598H183.091V40.1738H166.909ZM187.223 40.1738V18.4738H196.678C198.249 18.4738 199.602 18.7322 200.739 19.2488C201.876 19.7448 202.754 20.4682 203.374 21.4188C204.015 22.3695 204.335 23.5372 204.335 24.9218C204.335 26.0172 204.139 26.9885 203.746 27.8358C203.353 28.6832 202.785 29.3962 202.041 29.9748C201.318 30.5328 200.429 30.9668 199.375 31.2768C198.321 31.5662 197.122 31.7108 195.779 31.7108H190.509V40.1738H187.223ZM201.731 40.1738L196.151 31.1838L199.282 30.5018L205.42 40.1738H201.731ZM190.509 28.8278H196.461C197.887 28.8278 198.993 28.4972 199.778 27.8358C200.584 27.1538 200.987 26.1825 200.987 24.9218C200.987 23.7232 200.584 22.8345 199.778 22.2558C198.993 21.6772 197.856 21.3878 196.368 21.3878H190.509V28.8278ZM214.536 40.1738V32.3308L205.794 18.4738H209.886L216.179 29.1068H216.303L222.565 18.4738H226.533L217.822 32.2998V40.1738H214.536Z" fill="#006351"/>
<mask id="path-4-inside-2_888_2024" fill="white">
<path d="M0 63H440V76H0V63Z"/>
</mask>
<path d="M0 63H440V76H0V63Z" fill="#FFFDEB"/>
<path d="M439 63V76H441V63H439ZM1 76V63H-1V76H1Z" fill="#006351" mask="url(#path-4-inside-2_888_2024)"/>
</svg>
