<svg width="1075" height="876" viewBox="0 0 1075 876" fill="none" xmlns="http://www.w3.org/2000/svg">
<mask id="path-1-inside-1_852_2172" fill="white">
<path fill-rule="evenodd" clip-rule="evenodd" d="M304 0C293.507 0 285 8.50659 285 19V67.7791C285 72.1973 281.418 75.7791 277 75.7791H12C5.37258 75.7791 0 81.1516 0 87.779V863.779C0 870.406 5.37261 875.779 12 875.779H1063C1069.63 875.779 1075 870.406 1075 863.779V87.7791C1075 81.1516 1069.63 75.7791 1063 75.7791H787.572C785.585 75.7791 783.816 74.6105 782.665 72.9907V72.9907L736.453 7.99068C732.889 2.9776 727.118 0 720.968 0H304Z"/>
</mask>
<path fill-rule="evenodd" clip-rule="evenodd" d="M304 0C293.507 0 285 8.50659 285 19V67.7791C285 72.1973 281.418 75.7791 277 75.7791H12C5.37258 75.7791 0 81.1516 0 87.779V863.779C0 870.406 5.37261 875.779 12 875.779H1063C1069.63 875.779 1075 870.406 1075 863.779V87.7791C1075 81.1516 1069.63 75.7791 1063 75.7791H787.572C785.585 75.7791 783.816 74.6105 782.665 72.9907V72.9907L736.453 7.99068C732.889 2.9776 727.118 0 720.968 0H304Z" fill="#FFFDEB"/>
<path d="M736.453 7.99068L737.268 7.41124L737.268 7.41124L736.453 7.99068ZM286 19C286 9.05887 294.059 1 304 1V-1C292.954 -1 284 7.9543 284 19H286ZM286 67.7791V19H284V67.7791H286ZM12 76.7791H277V74.7791H12V76.7791ZM1 87.779C1 81.7039 5.92487 76.7791 12 76.7791V74.7791C4.8203 74.7791 -1 80.5993 -1 87.779H1ZM1 863.779V87.779H-1V863.779H1ZM12 874.779C5.92489 874.779 1 869.854 1 863.779H-1C-1 870.959 4.82033 876.779 12 876.779V874.779ZM1063 874.779H12V876.779H1063V874.779ZM1074 863.779C1074 869.854 1069.08 874.779 1063 874.779V876.779C1070.18 876.779 1076 870.959 1076 863.779H1074ZM1074 87.7791V863.779H1076V87.7791H1074ZM1063 76.7791C1069.08 76.7791 1074 81.7039 1074 87.7791H1076C1076 80.5994 1070.18 74.7791 1063 74.7791V76.7791ZM787.572 76.7791H1063V74.7791H787.572V76.7791ZM735.638 8.57012L781.85 73.5701L783.48 72.4113L737.268 7.41124L735.638 8.57012ZM720.968 1C726.795 1 732.261 3.82088 735.638 8.57012L737.268 7.41124C733.516 2.13431 727.442 -1 720.968 -1V1ZM304 1H720.968V-1H304V1ZM787.572 74.7791C785.992 74.7791 784.498 73.843 783.48 72.4113L781.85 73.5701C783.135 75.378 785.178 76.7791 787.572 76.7791V74.7791ZM284 67.7791C284 71.645 280.866 74.7791 277 74.7791V76.7791C281.971 76.7791 286 72.7496 286 67.7791H284Z" fill="#006351" mask="url(#path-1-inside-1_852_2172)"/>
<path d="M323.309 62.3784C320.646 62.3784 318.311 61.6734 316.306 60.2634C314.332 58.8534 312.797 56.8794 311.7 54.3414C310.603 51.8034 310.055 48.8268 310.055 45.4114C310.055 42.0274 310.619 39.0664 311.747 36.5284C312.875 33.9904 314.426 32.0321 316.4 30.6534C318.405 29.2434 320.74 28.5384 323.403 28.5384C326.098 28.5384 328.432 29.2434 330.406 30.6534C332.411 32.0634 333.947 34.0374 335.012 36.5754C336.109 39.1134 336.657 42.0744 336.657 45.4584C336.657 48.8738 336.093 51.8504 334.965 54.3884C333.837 56.9264 332.27 58.9004 330.265 60.3104C328.291 61.6891 325.972 62.3784 323.309 62.3784ZM323.356 57.5844C325.017 57.5844 326.458 57.1144 327.68 56.1744C328.902 55.2031 329.842 53.8088 330.5 51.9914C331.189 50.1741 331.534 47.9964 331.534 45.4584C331.534 42.8891 331.189 40.7114 330.5 38.9254C329.842 37.1081 328.902 35.7294 327.68 34.7894C326.458 33.8181 325.017 33.3324 323.356 33.3324C321.727 33.3324 320.301 33.8181 319.079 34.7894C317.857 35.7294 316.901 37.1081 316.212 38.9254C315.523 40.7114 315.178 42.8891 315.178 45.4584C315.178 47.9964 315.523 50.1741 316.212 51.9914C316.901 53.8088 317.857 55.2031 319.079 56.1744C320.301 57.1144 321.727 57.5844 323.356 57.5844ZM349.817 62.3314C348.281 62.3314 346.777 62.1434 345.305 61.7674C343.832 61.3914 342.406 60.8901 341.028 60.2634L339.054 59.3704L340.464 55.7984L342.344 56.4564C343.628 56.9264 344.819 57.2554 345.916 57.4434C347.012 57.6314 348.109 57.7254 349.206 57.7254C351.524 57.7254 353.263 57.2868 354.423 56.4094C355.613 55.5008 356.209 54.1691 356.209 52.4144C356.209 50.7851 355.676 49.5318 354.611 48.6544C353.577 47.7458 352.088 47.2914 350.146 47.2914H344.177V42.8264H349.864C351.587 42.8264 352.95 42.3721 353.953 41.4634C354.987 40.5548 355.504 39.3798 355.504 37.9384C355.504 36.3718 355.018 35.1811 354.047 34.3664C353.075 33.5518 351.65 33.1444 349.77 33.1444C348.673 33.1444 347.576 33.2384 346.48 33.4264C345.414 33.5831 344.302 33.8494 343.143 34.2254L341.357 34.8834L340.182 31.4994L342.156 30.5594C343.534 29.9014 344.96 29.4001 346.433 29.0554C347.905 28.7108 349.362 28.5384 350.804 28.5384C352.903 28.5384 354.673 28.8988 356.115 29.6194C357.556 30.3088 358.653 31.2801 359.405 32.5334C360.188 33.7868 360.58 35.2751 360.58 36.9984C360.58 38.6278 360.141 40.1004 359.264 41.4164C358.418 42.7324 357.227 43.7038 355.692 44.3304V44.4714C357.509 45.0981 358.919 46.1478 359.922 47.6204C360.956 49.0931 361.473 50.8164 361.473 52.7904C361.473 54.7018 360.987 56.3781 360.016 57.8194C359.076 59.2608 357.728 60.3731 355.974 61.1564C354.219 61.9398 352.167 62.3314 349.817 62.3314ZM380.719 61.9084V29.0084H385.56L398.25 47.7144H398.344L411.316 29.0084H416.063V61.9084H411.081V37.6564L400.083 53.3544H396.417L385.607 37.7504V61.9084H380.719ZM434.613 61.9084V50.0174L421.359 29.0084H427.563L437.104 45.1294H437.292L446.786 29.0084H452.802L439.595 49.9704V61.9084H434.613ZM458.15 61.9084V29.0084H472.297C474.709 29.0084 476.777 29.4314 478.501 30.2774C480.224 31.1234 481.54 32.3454 482.449 33.9434C483.357 35.5414 483.812 37.4841 483.812 39.7714C483.812 42.0588 483.342 44.0484 482.402 45.7404C481.462 47.4011 480.13 48.6858 478.407 49.5944C476.683 50.5031 474.647 50.9574 472.297 50.9574H463.085L463.132 61.9084H458.15ZM463.132 46.5394H471.686C473.91 46.5394 475.634 45.9911 476.856 44.8944C478.078 43.7664 478.689 42.0901 478.689 39.8654C478.689 37.5781 478.078 35.9331 476.856 34.9304C475.634 33.9278 473.91 33.4264 471.686 33.4264H463.132V46.5394ZM482.434 61.9084L495.453 29.0084H501.375L514.488 61.9084H508.989L498.461 34.1784H498.32L487.604 61.9084H482.434ZM489.625 54.6234V50.2054H507.109V54.6234H489.625ZM534.707 62.3784C530.665 62.3784 527.203 61.7048 524.32 60.3574C521.469 59.0101 519.276 57.0674 517.74 54.5294C516.236 51.9914 515.484 48.9521 515.484 45.4114C515.484 42.6541 515.954 40.2258 516.894 38.1264C517.834 36.0271 519.135 34.2724 520.795 32.8624C522.487 31.4211 524.446 30.3401 526.67 29.6194C528.895 28.8988 531.261 28.5384 533.767 28.5384C535.24 28.5384 536.713 28.6794 538.185 28.9614C539.689 29.2121 541.146 29.6038 542.556 30.1364L544.06 30.7004L543.12 34.6014L541.381 34.1784C540.065 33.8338 538.781 33.5831 537.527 33.4264C536.274 33.2384 535.068 33.1444 533.908 33.1444C531.37 33.1444 529.099 33.5988 527.093 34.5074C525.088 35.4161 523.506 36.7791 522.346 38.5964C521.187 40.4138 520.607 42.7011 520.607 45.4584C520.607 48.1531 521.156 50.4404 522.252 52.3204C523.38 54.1691 524.994 55.5791 527.093 56.5504C529.224 57.4904 531.778 57.9604 534.754 57.9604C535.788 57.9604 536.885 57.8821 538.044 57.7254C539.204 57.5688 540.347 57.3338 541.475 57.0204V48.3724H531.558V43.9544H546.457V59.5584C545.329 60.0911 544.107 60.5768 542.791 61.0154C541.507 61.4541 540.175 61.7831 538.796 62.0024C537.418 62.2531 536.055 62.3784 534.707 62.3784ZM553.71 61.9084V29.0084H577.915V33.4264H558.692V42.8734H576.035V47.2914H558.692V57.4904H578.244V61.9084H553.71Z" fill="#006351"/>
</svg>
