<svg width="1075" height="876" viewBox="0 0 1075 876" fill="none" xmlns="http://www.w3.org/2000/svg">
<mask id="path-1-inside-1_872_2001" fill="white">
<path fill-rule="evenodd" clip-rule="evenodd" d="M254 0C243.507 0 235 8.50659 235 19V67.7791C235 72.1973 231.418 75.7791 227 75.7791H12C5.37258 75.7791 0 81.1516 0 87.779V863.779C0 870.406 5.37261 875.779 12 875.779H1063C1069.63 875.779 1075 870.406 1075 863.779V87.7791C1075 81.1516 1069.63 75.7791 1063 75.7791H737.572C735.585 75.7791 733.816 74.6105 732.665 72.9907V72.9907L686.453 7.99068C682.889 2.9776 677.118 0 670.968 0H254Z"/>
</mask>
<path fill-rule="evenodd" clip-rule="evenodd" d="M254 0C243.507 0 235 8.50659 235 19V67.7791C235 72.1973 231.418 75.7791 227 75.7791H12C5.37258 75.7791 0 81.1516 0 87.779V863.779C0 870.406 5.37261 875.779 12 875.779H1063C1069.63 875.779 1075 870.406 1075 863.779V87.7791C1075 81.1516 1069.63 75.7791 1063 75.7791H737.572C735.585 75.7791 733.816 74.6105 732.665 72.9907V72.9907L686.453 7.99068C682.889 2.9776 677.118 0 670.968 0H254Z" fill="#FFFDEB"/>
<path d="M686.453 7.99068L687.268 7.41124L687.268 7.41124L686.453 7.99068ZM236 19C236 9.05887 244.059 1 254 1V-1C242.954 -1 234 7.9543 234 19H236ZM236 67.7791V19H234V67.7791H236ZM12 76.7791H227V74.7791H12V76.7791ZM1 87.779C1 81.7039 5.92487 76.7791 12 76.7791V74.7791C4.8203 74.7791 -1 80.5993 -1 87.779H1ZM1 863.779V87.779H-1V863.779H1ZM12 874.779C5.92489 874.779 1 869.854 1 863.779H-1C-1 870.959 4.82033 876.779 12 876.779V874.779ZM1063 874.779H12V876.779H1063V874.779ZM1074 863.779C1074 869.854 1069.08 874.779 1063 874.779V876.779C1070.18 876.779 1076 870.959 1076 863.779H1074ZM1074 87.7791V863.779H1076V87.7791H1074ZM1063 76.7791C1069.08 76.7791 1074 81.7039 1074 87.7791H1076C1076 80.5994 1070.18 74.7791 1063 74.7791V76.7791ZM737.572 76.7791H1063V74.7791H737.572V76.7791ZM685.638 8.57012L731.85 73.5701L733.48 72.4113L687.268 7.41124L685.638 8.57012ZM670.968 1C676.795 1 682.261 3.82088 685.638 8.57012L687.268 7.41124C683.516 2.13431 677.442 -1 670.968 -1V1ZM254 1H670.968V-1H254V1ZM737.572 74.7791C735.992 74.7791 734.498 73.843 733.48 72.4113L731.85 73.5701C733.135 75.378 735.178 76.7791 737.572 76.7791V74.7791ZM234 67.7791C234 71.645 230.866 74.7791 227 74.7791V76.7791C231.971 76.7791 236 72.7496 236 67.7791H234Z" fill="#006351" mask="url(#path-1-inside-1_872_2001)"/>
<path d="M273.309 62.3782C270.646 62.3782 268.311 61.6732 266.306 60.2632C264.332 58.8532 262.797 56.8792 261.7 54.3412C260.603 51.8032 260.055 48.8265 260.055 45.4112C260.055 42.0272 260.619 39.0662 261.747 36.5282C262.875 33.9902 264.426 32.0319 266.4 30.6532C268.405 29.2432 270.74 28.5382 273.403 28.5382C276.098 28.5382 278.432 29.2432 280.406 30.6532C282.411 32.0632 283.947 34.0372 285.012 36.5752C286.109 39.1132 286.657 42.0742 286.657 45.4582C286.657 48.8735 286.093 51.8502 284.965 54.3882C283.837 56.9262 282.27 58.9002 280.265 60.3102C278.291 61.6889 275.972 62.3782 273.309 62.3782ZM273.356 57.5842C275.017 57.5842 276.458 57.1142 277.68 56.1742C278.902 55.2029 279.842 53.8085 280.5 51.9912C281.189 50.1739 281.534 47.9962 281.534 45.4582C281.534 42.8889 281.189 40.7112 280.5 38.9252C279.842 37.1079 278.902 35.7292 277.68 34.7892C276.458 33.8179 275.017 33.3322 273.356 33.3322C271.727 33.3322 270.301 33.8179 269.079 34.7892C267.857 35.7292 266.901 37.1079 266.212 38.9252C265.523 40.7112 265.178 42.8889 265.178 45.4582C265.178 47.9962 265.523 50.1739 266.212 51.9912C266.901 53.8085 267.857 55.2029 269.079 56.1742C270.301 57.1142 271.727 57.5842 273.356 57.5842ZM299.817 62.3312C298.281 62.3312 296.777 62.1432 295.305 61.7672C293.832 61.3912 292.406 60.8899 291.028 60.2632L289.054 59.3702L290.464 55.7982L292.344 56.4562C293.628 56.9262 294.819 57.2552 295.916 57.4432C297.012 57.6312 298.109 57.7252 299.206 57.7252C301.524 57.7252 303.263 57.2865 304.423 56.4092C305.613 55.5005 306.209 54.1689 306.209 52.4142C306.209 50.7849 305.676 49.5315 304.611 48.6542C303.577 47.7455 302.088 47.2912 300.146 47.2912H294.177V42.8262H299.864C301.587 42.8262 302.95 42.3719 303.953 41.4632C304.987 40.5545 305.504 39.3795 305.504 37.9382C305.504 36.3715 305.018 35.1809 304.047 34.3662C303.075 33.5515 301.65 33.1442 299.77 33.1442C298.673 33.1442 297.576 33.2382 296.48 33.4262C295.414 33.5829 294.302 33.8492 293.143 34.2252L291.357 34.8832L290.182 31.4992L292.156 30.5592C293.534 29.9012 294.96 29.3999 296.433 29.0552C297.905 28.7105 299.362 28.5382 300.804 28.5382C302.903 28.5382 304.673 28.8985 306.115 29.6192C307.556 30.3085 308.653 31.2799 309.405 32.5332C310.188 33.7865 310.58 35.2749 310.58 36.9982C310.58 38.6275 310.141 40.1002 309.264 41.4162C308.418 42.7322 307.227 43.7035 305.692 44.3302V44.4712C307.509 45.0979 308.919 46.1475 309.922 47.6202C310.956 49.0929 311.473 50.8162 311.473 52.7902C311.473 54.7015 310.987 56.3779 310.016 57.8192C309.076 59.2605 307.728 60.3729 305.974 61.1562C304.219 61.9395 302.167 62.3312 299.817 62.3312ZM330.719 61.9082V29.0082H335.56L348.25 47.7142H348.344L361.316 29.0082H366.063V61.9082H361.081V37.6562L350.083 53.3542H346.417L335.607 37.7502V61.9082H330.719ZM384.613 61.9082V50.0172L371.359 29.0082H377.563L387.104 45.1292H387.292L396.786 29.0082H402.802L389.595 49.9702V61.9082H384.613ZM408.15 61.9082V29.0082H422.297C424.709 29.0082 426.777 29.4312 428.501 30.2772C430.224 31.1232 431.54 32.3452 432.449 33.9432C433.357 35.5412 433.812 37.4839 433.812 39.7712C433.812 42.0585 433.342 44.0482 432.402 45.7402C431.462 47.4009 430.13 48.6855 428.407 49.5942C426.683 50.5029 424.647 50.9572 422.297 50.9572H413.085L413.132 61.9082H408.15ZM413.132 46.5392H421.686C423.91 46.5392 425.634 45.9909 426.856 44.8942C428.078 43.7662 428.689 42.0899 428.689 39.8652C428.689 37.5779 428.078 35.9329 426.856 34.9302C425.634 33.9275 423.91 33.4262 421.686 33.4262H413.132V46.5392ZM432.434 61.9082L445.453 29.0082H451.375L464.488 61.9082H458.989L448.461 34.1782H448.32L437.604 61.9082H432.434ZM439.625 54.6232V50.2052H457.109V54.6232H439.625ZM484.707 62.3782C480.665 62.3782 477.203 61.7045 474.32 60.3572C471.469 59.0099 469.276 57.0672 467.74 54.5292C466.236 51.9912 465.484 48.9519 465.484 45.4112C465.484 42.6539 465.954 40.2255 466.894 38.1262C467.834 36.0269 469.135 34.2722 470.795 32.8622C472.487 31.4209 474.446 30.3399 476.67 29.6192C478.895 28.8985 481.261 28.5382 483.767 28.5382C485.24 28.5382 486.713 28.6792 488.185 28.9612C489.689 29.2119 491.146 29.6035 492.556 30.1362L494.06 30.7002L493.12 34.6012L491.381 34.1782C490.065 33.8335 488.781 33.5829 487.527 33.4262C486.274 33.2382 485.068 33.1442 483.908 33.1442C481.37 33.1442 479.099 33.5985 477.093 34.5072C475.088 35.4159 473.506 36.7789 472.346 38.5962C471.187 40.4135 470.607 42.7009 470.607 45.4582C470.607 48.1529 471.156 50.4402 472.252 52.3202C473.38 54.1689 474.994 55.5789 477.093 56.5502C479.224 57.4902 481.778 57.9602 484.754 57.9602C485.788 57.9602 486.885 57.8819 488.044 57.7252C489.204 57.5685 490.347 57.3335 491.475 57.0202V48.3722H481.558V43.9542H496.457V59.5582C495.329 60.0909 494.107 60.5765 492.791 61.0152C491.507 61.4539 490.175 61.7829 488.796 62.0022C487.418 62.2529 486.055 62.3782 484.707 62.3782ZM503.71 61.9082V29.0082H527.915V33.4262H508.692V42.8732H526.035V47.2912H508.692V57.4902H528.244V61.9082H503.71Z" fill="#006351"/>
</svg>
