<svg width="440" height="957" viewBox="0 0 440 957" fill="none" xmlns="http://www.w3.org/2000/svg">
<mask id="path-1-inside-1_888_2034" fill="white">
<path fill-rule="evenodd" clip-rule="evenodd" d="M159.72 0C149.226 0 140.72 8.5066 140.72 19V42.6773V42.6773C140.72 44.1191 139.623 45.4006 138.181 45.4006H12C5.37258 45.4006 0 50.7731 0 57.4005V944.401C0 951.028 5.37257 956.401 12 956.401H428C434.627 956.401 440 951.028 440 944.401V57.4006C440 50.7731 434.627 45.4006 428 45.4006H419.906C417.316 45.4006 414.886 44.1468 413.386 42.0361L389.181 7.99068C385.617 2.9776 379.847 0 373.696 0H159.72Z"/>
</mask>
<path fill-rule="evenodd" clip-rule="evenodd" d="M159.72 0C149.226 0 140.72 8.5066 140.72 19V42.6773V42.6773C140.72 44.1191 139.623 45.4006 138.181 45.4006H12C5.37258 45.4006 0 50.7731 0 57.4005V944.401C0 951.028 5.37257 956.401 12 956.401H428C434.627 956.401 440 951.028 440 944.401V57.4006C440 50.7731 434.627 45.4006 428 45.4006H419.906C417.316 45.4006 414.886 44.1468 413.386 42.0361L389.181 7.99068C385.617 2.9776 379.847 0 373.696 0H159.72Z" fill="#FFFDEB"/>
<path d="M389.181 7.99068L388.366 8.57011L388.366 8.57011L389.181 7.99068ZM413.386 42.0361L412.571 42.6155L413.386 42.0361ZM141.72 19C141.72 9.05889 149.779 1 159.72 1V-1C148.674 -1 139.72 7.95432 139.72 19H141.72ZM141.72 42.6773V19H139.72V42.6773H141.72ZM12 46.4006H138.181V44.4006H12V46.4006ZM1 57.4005C1 51.3254 5.92487 46.4006 12 46.4006V44.4006C4.8203 44.4006 -1 50.2208 -1 57.4005H1ZM1 944.401V57.4005H-1V944.401H1ZM12 955.401C5.92486 955.401 1 950.476 1 944.401H-1C-1 951.58 4.82029 957.401 12 957.401V955.401ZM428 955.401H12V957.401H428V955.401ZM439 944.401C439 950.476 434.075 955.401 428 955.401V957.401C435.18 957.401 441 951.58 441 944.401H439ZM439 57.4006V944.401H441V57.4006H439ZM428 46.4006C434.075 46.4006 439 51.3254 439 57.4006H441C441 50.2209 435.18 44.4006 428 44.4006V46.4006ZM419.906 46.4006H428V44.4006H419.906V46.4006ZM388.366 8.57011L412.571 42.6155L414.201 41.4566L389.996 7.41124L388.366 8.57011ZM373.696 1C379.523 1 384.99 3.82088 388.366 8.57011L389.996 7.41124C386.244 2.13431 380.17 -1 373.696 -1V1ZM159.72 1H373.696V-1H159.72V1ZM419.906 44.4006C417.64 44.4006 415.514 43.3035 414.201 41.4566L412.571 42.6155C414.259 44.9901 416.992 46.4006 419.906 46.4006V44.4006ZM139.72 42.6773C139.72 43.66 138.982 44.4006 138.181 44.4006V46.4006C140.264 46.4006 141.72 44.5783 141.72 42.6773H139.72Z" fill="#006351" mask="url(#path-1-inside-1_888_2034)"/>
<path d="M163.651 40.4287C161.894 40.4287 160.354 39.9637 159.032 39.0337C157.73 38.1037 156.717 36.8017 155.994 35.1277C155.27 33.4537 154.909 31.4903 154.909 29.2377C154.909 27.0057 155.281 25.0527 156.025 23.3787C156.769 21.7047 157.792 20.413 159.094 19.5037C160.416 18.5737 161.956 18.1087 163.713 18.1087C165.49 18.1087 167.03 18.5737 168.332 19.5037C169.654 20.4337 170.667 21.7357 171.37 23.4097C172.093 25.0837 172.455 27.0367 172.455 29.2687C172.455 31.5213 172.083 33.4847 171.339 35.1587C170.595 36.8327 169.561 38.1347 168.239 39.0647C166.937 39.974 165.407 40.4287 163.651 40.4287ZM163.682 37.2667C164.777 37.2667 165.728 36.9567 166.534 36.3367C167.34 35.696 167.96 34.7763 168.394 33.5777C168.848 32.379 169.076 30.9427 169.076 29.2687C169.076 27.574 168.848 26.1377 168.394 24.9597C167.96 23.761 167.34 22.8517 166.534 22.2317C165.728 21.591 164.777 21.2707 163.682 21.2707C162.607 21.2707 161.667 21.591 160.861 22.2317C160.055 22.8517 159.424 23.761 158.97 24.9597C158.515 26.1377 158.288 27.574 158.288 29.2687C158.288 30.9427 158.515 32.379 158.97 33.5777C159.424 34.7763 160.055 35.696 160.861 36.3367C161.667 36.9567 162.607 37.2667 163.682 37.2667ZM181.134 40.3977C180.122 40.3977 179.13 40.2737 178.158 40.0257C177.187 39.7777 176.247 39.447 175.337 39.0337L174.035 38.4447L174.965 36.0887L176.205 36.5227C177.053 36.8327 177.838 37.0497 178.561 37.1737C179.285 37.2977 180.008 37.3597 180.731 37.3597C182.261 37.3597 183.408 37.0703 184.172 36.4917C184.958 35.8923 185.35 35.014 185.35 33.8567C185.35 32.782 184.999 31.9553 184.296 31.3767C183.614 30.7773 182.633 30.4777 181.351 30.4777H177.414V27.5327H181.165C182.302 27.5327 183.201 27.233 183.862 26.6337C184.544 26.0343 184.885 25.2593 184.885 24.3087C184.885 23.2753 184.565 22.49 183.924 21.9527C183.284 21.4153 182.343 21.1467 181.103 21.1467C180.38 21.1467 179.657 21.2087 178.933 21.3327C178.231 21.436 177.497 21.6117 176.732 21.8597L175.554 22.2937L174.779 20.0617L176.081 19.4417C176.991 19.0077 177.931 18.677 178.902 18.4497C179.874 18.2223 180.835 18.1087 181.785 18.1087C183.17 18.1087 184.338 18.3463 185.288 18.8217C186.239 19.2763 186.962 19.917 187.458 20.7437C187.975 21.5703 188.233 22.552 188.233 23.6887C188.233 24.7633 187.944 25.7347 187.365 26.6027C186.807 27.4707 186.022 28.1113 185.009 28.5247V28.6177C186.208 29.031 187.138 29.7233 187.799 30.6947C188.481 31.666 188.822 32.8027 188.822 34.1047C188.822 35.3653 188.502 36.471 187.861 37.4217C187.241 38.3723 186.353 39.106 185.195 39.6227C184.038 40.1393 182.684 40.3977 181.134 40.3977ZM201.517 40.1187V18.4187H204.71L213.08 30.7567H213.142L221.698 18.4187H224.829V40.1187H221.543V24.1227L214.289 34.4767H211.871L204.741 24.1847V40.1187H201.517ZM237.064 40.1187V32.2757L228.322 18.4187H232.414L238.707 29.0517H238.831L245.093 18.4187H249.061L240.35 32.2447V40.1187H237.064ZM252.588 40.1187V18.4187H261.919C263.51 18.4187 264.874 18.6977 266.011 19.2557C267.148 19.8137 268.016 20.6197 268.615 21.6737C269.214 22.7277 269.514 24.009 269.514 25.5177C269.514 27.0263 269.204 28.3387 268.584 29.4547C267.964 30.55 267.086 31.3973 265.949 31.9967C264.812 32.596 263.469 32.8957 261.919 32.8957H255.843L255.874 40.1187H252.588ZM255.874 29.9817H261.516C262.983 29.9817 264.12 29.62 264.926 28.8967C265.732 28.1527 266.135 27.047 266.135 25.5797C266.135 24.071 265.732 22.986 264.926 22.3247C264.12 21.6633 262.983 21.3327 261.516 21.3327H255.874V29.9817ZM268.605 40.1187L277.192 18.4187H281.098L289.747 40.1187H286.12L279.176 21.8287H279.083L272.015 40.1187H268.605ZM273.348 35.3137V32.3997H284.88V35.3137H273.348ZM303.083 40.4287C300.417 40.4287 298.134 39.9843 296.232 39.0957C294.352 38.207 292.905 36.9257 291.892 35.2517C290.9 33.5777 290.404 31.573 290.404 29.2377C290.404 27.419 290.714 25.8173 291.334 24.4327C291.954 23.048 292.812 21.8907 293.907 20.9607C295.023 20.01 296.315 19.297 297.782 18.8217C299.25 18.3463 300.81 18.1087 302.463 18.1087C303.435 18.1087 304.406 18.2017 305.377 18.3877C306.369 18.553 307.33 18.8113 308.26 19.1627L309.252 19.5347L308.632 22.1077L307.485 21.8287C306.617 21.6013 305.77 21.436 304.943 21.3327C304.117 21.2087 303.321 21.1467 302.556 21.1467C300.882 21.1467 299.384 21.4463 298.061 22.0457C296.739 22.645 295.695 23.544 294.93 24.7427C294.166 25.9413 293.783 27.45 293.783 29.2687C293.783 31.046 294.145 32.5547 294.868 33.7947C295.612 35.014 296.677 35.944 298.061 36.5847C299.467 37.2047 301.151 37.5147 303.114 37.5147C303.796 37.5147 304.52 37.463 305.284 37.3597C306.049 37.2563 306.803 37.1013 307.547 36.8947V31.1907H301.006V28.2767H310.833V38.5687C310.089 38.92 309.283 39.2403 308.415 39.5297C307.568 39.819 306.69 40.036 305.78 40.1807C304.871 40.346 303.972 40.4287 303.083 40.4287ZM315.617 40.1187V18.4187H331.582V21.3327H318.903V27.5637H330.342V30.4777H318.903V37.2047H331.799V40.1187H315.617Z" fill="#006351"/>
</svg>
