<svg width="1075" height="113" viewBox="0 0 1075 113" fill="none" xmlns="http://www.w3.org/2000/svg">
<mask id="path-1-inside-1_872_1978" fill="white">
<path fill-rule="evenodd" clip-rule="evenodd" d="M73 0C62.5066 0 54 8.50657 54 19V67.8701C54 72.2884 50.4183 75.8701 46 75.8701H12C5.37258 75.8701 0 81.2427 0 87.8701V101.87C0 106.288 3.58174 109.87 8.00002 109.87H1067C1071.42 109.87 1075 106.288 1075 101.87V87.8701C1075 81.2427 1069.63 75.8701 1063 75.8701H500.719C499.431 75.8701 498.274 75.1245 497.586 74.0352V74.0352L456.407 8.85218C452.925 3.34143 446.862 0 440.344 0H73Z"/>
</mask>
<path fill-rule="evenodd" clip-rule="evenodd" d="M73 0C62.5066 0 54 8.50657 54 19V67.8701C54 72.2884 50.4183 75.8701 46 75.8701H12C5.37258 75.8701 0 81.2427 0 87.8701V101.87C0 106.288 3.58174 109.87 8.00002 109.87H1067C1071.42 109.87 1075 106.288 1075 101.87V87.8701C1075 81.2427 1069.63 75.8701 1063 75.8701H500.719C499.431 75.8701 498.274 75.1245 497.586 74.0352V74.0352L456.407 8.85218C452.925 3.34143 446.862 0 440.344 0H73Z" fill="#FFFDEB"/>
<path d="M456.407 8.85218L457.252 8.31809L457.252 8.31809L456.407 8.85218ZM55 19C55 9.05885 63.0589 1 73 1V-1C61.9543 -1 53 7.95428 53 19H55ZM55 67.8701V19H53V67.8701H55ZM12 76.8701H46V74.8701H12V76.8701ZM1 87.8701C1 81.795 5.92487 76.8701 12 76.8701V74.8701C4.8203 74.8701 -1 80.6904 -1 87.8701H1ZM1 101.87V87.8701H-1V101.87H1ZM1067 108.87H8.00002V110.87H1067V108.87ZM1074 87.8701V101.87H1076V87.8701H1074ZM1063 76.8701C1069.08 76.8701 1074 81.795 1074 87.8701H1076C1076 80.6904 1070.18 74.8701 1063 74.8701V76.8701ZM500.719 76.8701H1063V74.8701H500.719V76.8701ZM455.561 9.38628L496.74 74.5693L498.431 73.5011L457.252 8.31809L455.561 9.38628ZM440.344 1C446.519 1 452.263 4.16557 455.561 9.38628L457.252 8.31809C453.587 2.5173 447.205 -1 440.344 -1V1ZM73 1H440.344V-1H73V1ZM500.719 74.8701C499.829 74.8701 498.968 74.3508 498.431 73.5011L496.74 74.5693C497.58 75.8982 499.032 76.8701 500.719 76.8701V74.8701ZM1067 110.87C1071.97 110.87 1076 106.841 1076 101.87H1074C1074 105.736 1070.87 108.87 1067 108.87V110.87ZM-1 101.87C-1 106.841 3.02946 110.87 8.00002 110.87V108.87C4.13402 108.87 1 105.736 1 101.87H-1ZM53 67.8701C53 71.7361 49.866 74.8701 46 74.8701V76.8701C50.9706 76.8701 55 72.8407 55 67.8701H53Z" fill="#006351" mask="url(#path-1-inside-1_872_1978)"/>
<path d="M92.309 62.47C89.6457 62.47 87.3113 61.765 85.306 60.355C83.332 58.945 81.7967 56.971 80.7 54.433C79.6033 51.895 79.055 48.9183 79.055 45.503C79.055 42.119 79.619 39.158 80.747 36.62C81.875 34.082 83.426 32.1237 85.4 30.745C87.4053 29.335 89.7397 28.63 92.403 28.63C95.0977 28.63 97.432 29.335 99.406 30.745C101.411 32.155 102.947 34.129 104.012 36.667C105.109 39.205 105.657 42.166 105.657 45.55C105.657 48.9653 105.093 51.942 103.965 54.48C102.837 57.018 101.27 58.992 99.265 60.402C97.291 61.7807 94.9723 62.47 92.309 62.47ZM92.356 57.676C94.0167 57.676 95.458 57.206 96.68 56.266C97.902 55.2947 98.842 53.9003 99.5 52.083C100.189 50.2657 100.534 48.088 100.534 45.55C100.534 42.9807 100.189 40.803 99.5 39.017C98.842 37.1997 97.902 35.821 96.68 34.881C95.458 33.9097 94.0167 33.424 92.356 33.424C90.7267 33.424 89.301 33.9097 88.079 34.881C86.857 35.821 85.9013 37.1997 85.212 39.017C84.5227 40.803 84.178 42.9807 84.178 45.55C84.178 48.088 84.5227 50.2657 85.212 52.083C85.9013 53.9003 86.857 55.2947 88.079 56.266C89.301 57.206 90.7267 57.676 92.356 57.676ZM116.908 62V34.74L109.764 36.291L108.73 32.484L117.425 29.1H121.89V62H116.908ZM161.101 62.47C157.059 62.47 153.597 61.7963 150.714 60.449C147.863 59.1017 145.669 57.159 144.134 54.621C142.63 52.083 141.878 49.0437 141.878 45.503C141.878 42.7457 142.348 40.3173 143.288 38.218C144.228 36.1187 145.528 34.364 147.189 32.954C148.881 31.5127 150.839 30.4317 153.064 29.711C155.289 28.9903 157.654 28.63 160.161 28.63C161.634 28.63 163.106 28.771 164.579 29.053C166.083 29.3037 167.54 29.6953 168.95 30.228L170.454 30.792L169.514 34.693L167.775 34.27C166.459 33.9253 165.174 33.6747 163.921 33.518C162.668 33.33 161.461 33.236 160.302 33.236C157.764 33.236 155.492 33.6903 153.487 34.599C151.482 35.5077 149.899 36.8707 148.74 38.688C147.581 40.5053 147.001 42.7927 147.001 45.55C147.001 48.2447 147.549 50.532 148.646 52.412C149.774 54.2607 151.388 55.6707 153.487 56.642C155.618 57.582 158.171 58.052 161.148 58.052C162.182 58.052 163.279 57.9737 164.438 57.817C165.597 57.6603 166.741 57.4253 167.869 57.112V48.464H157.952V44.046H172.851V59.65C171.723 60.1827 170.501 60.6683 169.185 61.107C167.9 61.5457 166.569 61.8747 165.19 62.094C163.811 62.3447 162.448 62.47 161.101 62.47ZM176.344 62L189.363 29.1H195.285L208.398 62H202.899L192.371 34.27H192.23L181.514 62H176.344ZM183.535 54.715V50.297H201.019V54.715H183.535ZM213.013 62V29.1H217.995V57.582H236.09V62H213.013ZM241.47 62V29.1H246.452V57.582H264.547V62H241.47ZM269.927 62V29.1H294.132V33.518H274.909V42.965H292.252V47.383H274.909V57.582H294.461V62H269.927ZM300.725 62V29.1H315.06C317.441 29.1 319.494 29.4917 321.217 30.275C322.94 31.027 324.272 32.1237 325.212 33.565C326.183 35.0063 326.669 36.7767 326.669 38.876C326.669 40.5367 326.371 42.0093 325.776 43.294C325.181 44.5787 324.319 45.6597 323.191 46.537C322.094 47.383 320.747 48.041 319.149 48.511C317.551 48.9497 315.734 49.169 313.697 49.169H305.707V62H300.725ZM322.721 62L314.261 48.37L319.008 47.336L328.314 62H322.721ZM305.707 44.798H314.731C316.893 44.798 318.569 44.2967 319.76 43.294C320.982 42.26 321.593 40.7873 321.593 38.876C321.593 37.0587 320.982 35.7113 319.76 34.834C318.569 33.9567 316.846 33.518 314.59 33.518H305.707V44.798ZM342.135 62V50.109L328.881 29.1H335.085L344.626 45.221H344.814L354.308 29.1H360.324L347.117 50.062V62H342.135Z" fill="#006351"/>
<mask id="path-4-inside-2_872_1978" fill="white">
<path d="M0 88H1075V113H0V88Z"/>
</mask>
<path d="M0 88H1075V113H0V88Z" fill="#FFFDEB"/>
<path d="M1074 88V113H1076V88H1074ZM1 113V88H-1V113H1Z" fill="#006351" mask="url(#path-4-inside-2_872_1978)"/>
</svg>
