<svg width="440" height="956" viewBox="0 0 440 956" fill="none" xmlns="http://www.w3.org/2000/svg">
<mask id="path-1-inside-1_888_2029" fill="white">
<path fill-rule="evenodd" clip-rule="evenodd" d="M99 0C88.5066 0 80 8.5066 80 19V42.6773V42.6773C80 43.9149 79.0498 45 77.8122 45H12C5.37258 45 0 50.3726 0 57V944C0 950.627 5.37257 956 12 956H428C434.627 956 440 950.627 440 944V57C440 50.3726 434.627 45 428 45H383.053C380.463 45 378.034 43.7463 376.533 41.6355L352.613 7.99068C349.049 2.9776 343.279 0 337.128 0H99Z"/>
</mask>
<path fill-rule="evenodd" clip-rule="evenodd" d="M99 0C88.5066 0 80 8.5066 80 19V42.6773V42.6773C80 43.9149 79.0498 45 77.8122 45H12C5.37258 45 0 50.3726 0 57V944C0 950.627 5.37257 956 12 956H428C434.627 956 440 950.627 440 944V57C440 50.3726 434.627 45 428 45H383.053C380.463 45 378.034 43.7463 376.533 41.6355L352.613 7.99068C349.049 2.9776 343.279 0 337.128 0H99Z" fill="#FFFDEB"/>
<path d="M352.613 7.99068L351.798 8.57011L351.798 8.57011L352.613 7.99068ZM376.533 41.6355L375.718 42.2149L376.533 41.6355ZM81 19C81 9.05889 89.0589 1 99 1V-1C87.9543 -1 79 7.95432 79 19H81ZM81 42.6773V19H79V42.6773H81ZM12 46H77.8122V44H12V46ZM1 57C1 50.9249 5.92487 46 12 46V44C4.8203 44 -1 49.8203 -1 57H1ZM1 944V57H-1V944H1ZM12 955C5.92486 955 1 950.075 1 944H-1C-1 951.18 4.82029 957 12 957V955ZM428 955H12V957H428V955ZM439 944C439 950.075 434.075 955 428 955V957C435.18 957 441 951.18 441 944H439ZM439 57V944H441V57H439ZM428 46C434.075 46 439 50.9249 439 57H441C441 49.8203 435.18 44 428 44V46ZM383.053 46H428V44H383.053V46ZM351.798 8.57011L375.718 42.2149L377.348 41.0561L353.428 7.41124L351.798 8.57011ZM337.128 1C342.955 1 348.422 3.82088 351.798 8.57011L353.428 7.41124C349.676 2.13431 343.602 -1 337.128 -1V1ZM99 1H337.128V-1H99V1ZM383.053 44C380.787 44 378.661 42.903 377.348 41.0561L375.718 42.2149C377.406 44.5896 380.139 46 383.053 46V44ZM79 42.6773C79 43.4419 78.4215 44 77.8122 44V46C79.6781 46 81 44.388 81 42.6773H79Z" fill="#006351" mask="url(#path-1-inside-1_888_2029)"/>
<path d="M104.757 40.4287C103 40.4287 101.461 39.9637 100.138 39.0337C98.836 38.1037 97.8233 36.8017 97.1 35.1277C96.3767 33.4537 96.015 31.4903 96.015 29.2377C96.015 27.0057 96.387 25.0527 97.131 23.3787C97.875 21.7047 98.898 20.413 100.2 19.5037C101.523 18.5737 103.062 18.1087 104.819 18.1087C106.596 18.1087 108.136 18.5737 109.438 19.5037C110.761 20.4337 111.773 21.7357 112.476 23.4097C113.199 25.0837 113.561 27.0367 113.561 29.2687C113.561 31.5213 113.189 33.4847 112.445 35.1587C111.701 36.8327 110.668 38.1347 109.345 39.0647C108.043 39.974 106.514 40.4287 104.757 40.4287ZM104.788 37.2667C105.883 37.2667 106.834 36.9567 107.64 36.3367C108.446 35.696 109.066 34.7763 109.5 33.5777C109.955 32.379 110.182 30.9427 110.182 29.2687C110.182 27.574 109.955 26.1377 109.5 24.9597C109.066 23.761 108.446 22.8517 107.64 22.2317C106.834 21.591 105.883 21.2707 104.788 21.2707C103.713 21.2707 102.773 21.591 101.967 22.2317C101.161 22.8517 100.531 23.761 100.076 24.9597C99.6213 26.1377 99.394 27.574 99.394 29.2687C99.394 30.9427 99.6213 32.379 100.076 33.5777C100.531 34.7763 101.161 35.696 101.967 36.3367C102.773 36.9567 103.713 37.2667 104.788 37.2667ZM116.561 40.1187V37.3597C116.561 36.2023 116.706 35.2207 116.995 34.4147C117.285 33.588 117.76 32.8543 118.421 32.2137C119.083 31.5523 119.94 30.9013 120.994 30.2607L123.97 28.4317C125.19 27.6877 126.068 26.9953 126.605 26.3547C127.163 25.714 127.442 24.97 127.442 24.1227C127.442 23.2133 127.132 22.49 126.512 21.9527C125.892 21.4153 124.983 21.1467 123.784 21.1467C122.916 21.1467 122.09 21.2293 121.304 21.3947C120.54 21.56 119.692 21.7977 118.762 22.1077L117.398 22.5727L116.53 20.3097L117.832 19.6897C118.969 19.1523 120.085 18.7597 121.18 18.5117C122.276 18.243 123.34 18.1087 124.373 18.1087C125.717 18.1087 126.864 18.336 127.814 18.7907C128.786 19.2453 129.53 19.9067 130.046 20.7747C130.584 21.6427 130.852 22.707 130.852 23.9677C130.852 24.939 130.656 25.8277 130.263 26.6337C129.891 27.4397 129.344 28.1837 128.62 28.8657C127.897 29.5477 127.019 30.1987 125.985 30.8187L122.73 32.7717C121.78 33.3297 121.056 33.9083 120.56 34.5077C120.085 35.107 119.847 35.944 119.847 37.0187V37.8247L119.444 37.0187H131.193V40.1187H116.561ZM155.64 40.4287C152.974 40.4287 150.69 39.9843 148.789 39.0957C146.908 38.207 145.462 36.9257 144.449 35.2517C143.457 33.5777 142.961 31.573 142.961 29.2377C142.961 27.419 143.271 25.8173 143.891 24.4327C144.511 23.048 145.369 21.8907 146.464 20.9607C147.58 20.01 148.872 19.297 150.339 18.8217C151.806 18.3463 153.367 18.1087 155.02 18.1087C155.991 18.1087 156.963 18.2017 157.934 18.3877C158.926 18.553 159.887 18.8113 160.817 19.1627L161.809 19.5347L161.189 22.1077L160.042 21.8287C159.174 21.6013 158.327 21.436 157.5 21.3327C156.673 21.2087 155.878 21.1467 155.113 21.1467C153.439 21.1467 151.941 21.4463 150.618 22.0457C149.295 22.645 148.252 23.544 147.487 24.7427C146.722 25.9413 146.34 27.45 146.34 29.2687C146.34 31.046 146.702 32.5547 147.425 33.7947C148.169 35.014 149.233 35.944 150.618 36.5847C152.023 37.2047 153.708 37.5147 155.671 37.5147C156.353 37.5147 157.076 37.463 157.841 37.3597C158.606 37.2563 159.36 37.1013 160.104 36.8947V31.1907H153.563V28.2767H163.39V38.5687C162.646 38.92 161.84 39.2403 160.972 39.5297C160.125 39.819 159.246 40.036 158.337 40.1807C157.428 40.346 156.529 40.4287 155.64 40.4287ZM168.174 40.1187V18.4187H184.139V21.3327H171.46V27.5637H182.899V30.4777H171.46V37.2047H184.356V40.1187H168.174ZM188.488 40.1187V18.4187H191.371L204.36 33.9187H204.422V18.4187H207.708V40.1187H205.135L191.805 24.1227H191.743V40.1187H188.488ZM213.221 40.1187V18.4187H229.186V21.3327H216.507V27.5637H227.946V30.4777H216.507V37.2047H229.403V40.1187H213.221ZM233.534 40.1187V18.4187H242.989C244.56 18.4187 245.914 18.677 247.05 19.1937C248.187 19.6897 249.065 20.413 249.685 21.3637C250.326 22.3143 250.646 23.482 250.646 24.8667C250.646 25.962 250.45 26.9333 250.057 27.7807C249.665 28.628 249.096 29.341 248.352 29.9197C247.629 30.4777 246.74 30.9117 245.686 31.2217C244.632 31.511 243.434 31.6557 242.09 31.6557H236.82V40.1187H233.534ZM248.042 40.1187L242.462 31.1287L245.593 30.4467L251.731 40.1187H248.042ZM236.82 28.7727H242.772C244.198 28.7727 245.304 28.442 246.089 27.7807C246.895 27.0987 247.298 26.1273 247.298 24.8667C247.298 23.668 246.895 22.7793 246.089 22.2007C245.304 21.622 244.167 21.3327 242.679 21.3327H236.82V28.7727ZM252.882 40.1187L261.469 18.4187H265.375L274.024 40.1187H270.397L263.453 21.8287H263.36L256.292 40.1187H252.882ZM257.625 35.3137V32.3997H269.157V35.3137H257.625ZM280.263 40.1187V21.3327H272.544V18.4187H291.237V21.3327H283.58V40.1187H280.263ZM303.545 40.4287C301.354 40.4287 299.443 39.9637 297.81 39.0337C296.177 38.083 294.906 36.7707 293.997 35.0967C293.088 33.402 292.633 31.449 292.633 29.2377C292.633 27.047 293.088 25.1147 293.997 23.4407C294.927 21.7667 296.219 20.4647 297.872 19.5347C299.525 18.584 301.416 18.1087 303.545 18.1087C305.756 18.1087 307.678 18.584 309.311 19.5347C310.964 20.4647 312.246 21.777 313.155 23.4717C314.064 25.1457 314.519 27.078 314.519 29.2687C314.519 31.4593 314.054 33.402 313.124 35.0967C312.194 36.7707 310.902 38.083 309.249 39.0337C307.616 39.9637 305.715 40.4287 303.545 40.4287ZM303.545 37.3907C305.054 37.3907 306.376 37.0703 307.513 36.4297C308.65 35.7683 309.538 34.828 310.179 33.6087C310.82 32.3893 311.14 30.9323 311.14 29.2377C311.14 27.5637 310.82 26.1273 310.179 24.9287C309.559 23.7093 308.681 22.7793 307.544 22.1387C306.407 21.4773 305.074 21.1467 303.545 21.1467C302.078 21.1467 300.776 21.4773 299.639 22.1387C298.502 22.7793 297.614 23.7093 296.973 24.9287C296.332 26.1273 296.012 27.574 296.012 29.2687C296.012 30.9427 296.322 32.3893 296.942 33.6087C297.583 34.828 298.471 35.7683 299.608 36.4297C300.745 37.0703 302.057 37.3907 303.545 37.3907ZM318.966 40.1187V18.4187H328.421C329.992 18.4187 331.345 18.677 332.482 19.1937C333.619 19.6897 334.497 20.413 335.117 21.3637C335.758 22.3143 336.078 23.482 336.078 24.8667C336.078 25.962 335.882 26.9333 335.489 27.7807C335.096 28.628 334.528 29.341 333.784 29.9197C333.061 30.4777 332.172 30.9117 331.118 31.2217C330.064 31.511 328.865 31.6557 327.522 31.6557H322.252V40.1187H318.966ZM333.474 40.1187L327.894 31.1287L331.025 30.4467L337.163 40.1187H333.474ZM322.252 28.7727H328.204C329.63 28.7727 330.736 28.442 331.521 27.7807C332.327 27.0987 332.73 26.1273 332.73 24.8667C332.73 23.668 332.327 22.7793 331.521 22.2007C330.736 21.622 329.599 21.3327 328.111 21.3327H322.252V28.7727Z" fill="#006351"/>
</svg>
