<svg width="15" height="15" viewBox="0 0 15 15" fill="none" xmlns="http://www.w3.org/2000/svg">
<path d="M6.24988 8.23045C6.51829 8.58928 6.86073 8.88619 7.25397 9.10103C7.64722 9.31588 8.08207 9.44364 8.52904 9.47566C8.976 9.50767 9.42462 9.44318 9.84447 9.28656C10.2643 9.12994 10.6456 8.88487 10.9624 8.56795L12.8374 6.69295C13.4066 6.10357 13.7216 5.31418 13.7145 4.49482C13.7074 3.67545 13.3787 2.89166 12.7993 2.31226C12.2199 1.73286 11.4361 1.40421 10.6168 1.39709C9.79739 1.38997 9.00801 1.70495 8.41863 2.2742L7.34363 3.34295M8.74988 6.98045C8.48147 6.62162 8.13903 6.32471 7.74579 6.10986C7.35254 5.89501 6.91769 5.76725 6.47072 5.73524C6.02376 5.70323 5.57514 5.76772 5.15529 5.92433C4.73544 6.08095 4.35418 6.32603 4.03738 6.64295L2.16238 8.51795C1.59314 9.10733 1.27815 9.89671 1.28527 10.7161C1.29239 11.5354 1.62105 12.3192 2.20045 12.8986C2.77985 13.478 3.56364 13.8067 4.383 13.8138C5.20237 13.8209 5.99175 13.5059 6.58113 12.9367L7.64988 11.8679" stroke="#4F938D" stroke-width="2" stroke-linecap="round" stroke-linejoin="round"/>
</svg>
