<svg width="498" height="327" viewBox="0 0 498 327" fill="none" xmlns="http://www.w3.org/2000/svg">
<path d="M0 14.2105C0 6.36227 6.36219 0 14.2104 0H71.0526C78.9009 0 85.2632 6.36227 85.2632 14.2105V71.0526C85.2632 78.9009 78.9009 85.2632 71.0526 85.2632H14.2104C6.36219 85.2632 0 78.9009 0 71.0526V14.2105Z" fill="#393A3C"/>
<path d="M104.803 15.9868C104.803 12.0627 107.984 8.88158 111.908 8.88158H490.263C494.187 8.88158 497.368 12.0627 497.368 15.9868V33.75C497.368 37.6741 494.187 40.8553 490.263 40.8553H111.908C107.984 40.8553 104.803 37.6741 104.803 33.75V15.9868Z" fill="#4B4B4E"/>
<path d="M104.803 66.6118C104.803 61.2162 109.177 56.8421 114.572 56.8421H226.48C231.876 56.8421 236.25 61.2162 236.25 66.6118C236.25 72.0075 231.876 76.3816 226.48 76.3816H114.572C109.177 76.3816 104.803 72.0075 104.803 66.6118Z" fill="#434447"/>
<path d="M250.46 66.6118C250.46 61.2162 254.835 56.8421 260.23 56.8421H372.138C377.534 56.8421 381.908 61.2162 381.908 66.6118C381.908 72.0075 377.534 76.3816 372.138 76.3816H260.23C254.835 76.3816 250.46 72.0075 250.46 66.6118Z" fill="#434447"/>
<path d="M0 135C0 127.152 6.36219 120.789 14.2104 120.789H71.0526C78.9009 120.789 85.2632 127.152 85.2632 135V191.842C85.2632 199.69 78.9009 206.053 71.0526 206.053H14.2104C6.36219 206.053 0 199.69 0 191.842V135Z" fill="#393A3C"/>
<path d="M104.803 136.776C104.803 132.852 107.984 129.671 111.908 129.671H490.263C494.187 129.671 497.368 132.852 497.368 136.776V154.539C497.368 158.464 494.187 161.645 490.263 161.645H111.908C107.984 161.645 104.803 158.464 104.803 154.539V136.776Z" fill="#4B4B4E"/>
<path d="M104.803 187.401C104.803 182.006 109.177 177.632 114.572 177.632H226.48C231.876 177.632 236.25 182.006 236.25 187.401C236.25 192.797 231.876 197.171 226.48 197.171H114.572C109.177 197.171 104.803 192.797 104.803 187.401Z" fill="#434447"/>
<path d="M250.46 187.401C250.46 182.006 254.835 177.632 260.23 177.632H372.138C377.534 177.632 381.908 182.006 381.908 187.401C381.908 192.797 377.534 197.171 372.138 197.171H260.23C254.835 197.171 250.46 192.797 250.46 187.401Z" fill="#434447"/>
<path d="M0 255.789C0 247.941 6.36219 241.579 14.2104 241.579H71.0526C78.9009 241.579 85.2632 247.941 85.2632 255.789V312.632C85.2632 320.48 78.9009 326.842 71.0526 326.842H14.2104C6.36219 326.842 0 320.48 0 312.632V255.789Z" fill="#393A3C"/>
<path d="M104.803 257.566C104.803 253.642 107.984 250.461 111.908 250.461H490.263C494.187 250.461 497.368 253.642 497.368 257.566V275.329C497.368 279.253 494.187 282.434 490.263 282.434H111.908C107.984 282.434 104.803 279.253 104.803 275.329V257.566Z" fill="#4B4B4E"/>
<path d="M104.803 308.191C104.803 302.795 109.177 298.421 114.572 298.421H226.48C231.876 298.421 236.25 302.795 236.25 308.191C236.25 313.586 231.876 317.961 226.48 317.961H114.572C109.177 317.961 104.803 313.586 104.803 308.191Z" fill="#434447"/>
<path d="M250.46 308.191C250.46 302.795 254.835 298.421 260.23 298.421H372.138C377.534 298.421 381.908 302.795 381.908 308.191C381.908 313.586 377.534 317.961 372.138 317.961H260.23C254.835 317.961 250.46 313.586 250.46 308.191Z" fill="#434447"/>
</svg>
