<svg width="18" height="19" viewBox="0 0 18 19" fill="none" xmlns="http://www.w3.org/2000/svg">
<mask id="mask0_461_2611" style="mask-type:alpha" maskUnits="userSpaceOnUse" x="0" y="0" width="18" height="19">
<rect y="0.5" width="18" height="18" fill="#D9D9D9"/>
</mask>
<g mask="url(#mask0_461_2611)">
<path d="M6.9374 17L6.6374 14.6C6.4749 14.5375 6.32178 14.4625 6.17803 14.375C6.03428 14.2875 5.89365 14.1937 5.75615 14.0937L3.5249 15.0312L1.4624 11.4687L3.39365 10.0062C3.38115 9.91875 3.3749 9.83437 3.3749 9.75312V9.24687C3.3749 9.16562 3.38115 9.08125 3.39365 8.99375L1.4624 7.53125L3.5249 3.96875L5.75615 4.90625C5.89365 4.80625 6.0374 4.7125 6.1874 4.625C6.3374 4.5375 6.4874 4.4625 6.6374 4.4L6.9374 2H11.0624L11.3624 4.4C11.5249 4.4625 11.678 4.5375 11.8218 4.625C11.9655 4.7125 12.1062 4.80625 12.2437 4.90625L14.4749 3.96875L16.5374 7.53125L14.6062 8.99375C14.6187 9.08125 14.6249 9.16562 14.6249 9.24687V9.75312C14.6249 9.83437 14.6124 9.91875 14.5874 10.0062L16.5187 11.4687L14.4562 15.0312L12.2437 14.0937C12.1062 14.1937 11.9624 14.2875 11.8124 14.375C11.6624 14.4625 11.5124 14.5375 11.3624 14.6L11.0624 17H6.9374ZM9.0374 12.125C9.7624 12.125 10.3812 11.8687 10.8937 11.3562C11.4062 10.8438 11.6624 10.225 11.6624 9.5C11.6624 8.775 11.4062 8.15625 10.8937 7.64375C10.3812 7.13125 9.7624 6.875 9.0374 6.875C8.2999 6.875 7.67803 7.13125 7.17178 7.64375C6.66553 8.15625 6.4124 8.775 6.4124 9.5C6.4124 10.225 6.66553 10.8438 7.17178 11.3562C7.67803 11.8687 8.2999 12.125 9.0374 12.125Z" fill="#F0FDF9"/>
</g>
</svg>
