<svg width="18" height="18" viewBox="0 0 18 18" fill="none" xmlns="http://www.w3.org/2000/svg">
<mask id="mask0_461_2685" style="mask-type:alpha" maskUnits="userSpaceOnUse" x="0" y="0" width="18" height="18">
<rect width="18" height="18" fill="#D9D9D9"/>
</mask>
<g mask="url(#mask0_461_2685)">
<path d="M6.9374 16.5L6.6374 14.1C6.4749 14.0375 6.32178 13.9625 6.17803 13.875C6.03428 13.7875 5.89365 13.6937 5.75615 13.5937L3.5249 14.5312L1.4624 10.9687L3.39365 9.50625C3.38115 9.41875 3.3749 9.33437 3.3749 9.25312V8.74687C3.3749 8.66562 3.38115 8.58125 3.39365 8.49375L1.4624 7.03125L3.5249 3.46875L5.75615 4.40625C5.89365 4.30625 6.0374 4.2125 6.1874 4.125C6.3374 4.0375 6.4874 3.9625 6.6374 3.9L6.9374 1.5H11.0624L11.3624 3.9C11.5249 3.9625 11.678 4.0375 11.8218 4.125C11.9655 4.2125 12.1062 4.30625 12.2437 4.40625L14.4749 3.46875L16.5374 7.03125L14.6062 8.49375C14.6187 8.58125 14.6249 8.66562 14.6249 8.74687V9.25312C14.6249 9.33437 14.6124 9.41875 14.5874 9.50625L16.5187 10.9687L14.4562 14.5312L12.2437 13.5937C12.1062 13.6937 11.9624 13.7875 11.8124 13.875C11.6624 13.9625 11.5124 14.0375 11.3624 14.1L11.0624 16.5H6.9374ZM9.0374 11.625C9.7624 11.625 10.3812 11.3687 10.8937 10.8562C11.4062 10.3438 11.6624 9.725 11.6624 9C11.6624 8.275 11.4062 7.65625 10.8937 7.14375C10.3812 6.63125 9.7624 6.375 9.0374 6.375C8.2999 6.375 7.67803 6.63125 7.17178 7.14375C6.66553 7.65625 6.4124 8.275 6.4124 9C6.4124 9.725 6.66553 10.3438 7.17178 10.8562C7.67803 11.3687 8.2999 11.625 9.0374 11.625Z" fill="#628D85"/>
</g>
</svg>
