<svg width="540" height="1080" viewBox="0 0 540 1080" fill="none" xmlns="http://www.w3.org/2000/svg">
<rect x="0.5" y="0.5" width="539" height="1079" fill="#EFF1F5" stroke="#DCDFEA"/>
<g clip-path="url(#clip0_374_1584)">
<path d="M270.243 494.829V517.657M258.828 506.243H281.657M298.778 506.243C298.778 522.003 286.003 534.779 270.243 534.779C254.483 534.779 241.707 522.003 241.707 506.243C241.707 490.483 254.483 477.707 270.243 477.707C286.003 477.707 298.778 490.483 298.778 506.243Z" stroke="#667085" stroke-width="4" stroke-linecap="round" stroke-linejoin="round"/>
<path d="M368.631 566V583.149H375.453V586.276H368.631V608.115H364.936V566H368.631ZM336.323 597.172C347.195 591.771 353.116 583.647 353.969 573.675H338.265V570.548H357.735C357.712 582.462 352.122 593.335 338.407 600.109L336.323 597.172Z" fill="#667085"/>
<path d="M333.94 591.487V594.614H316.554V608.21H312.906V594.614H295.568V591.487H333.94ZM297.984 585.234C305.492 584.215 312.883 579.62 312.906 574.338V574.29H299.31V571.258H312.906V566H316.554V571.258H330.245V574.29H316.602V574.338C316.602 579.596 323.944 584.215 331.477 585.234L330.103 588.218C323.589 587.223 317.454 583.955 314.778 579.383C312.101 584.002 305.871 587.223 299.358 588.218L297.984 585.234Z" fill="#667085"/>
<path d="M259.442 578.933C259.466 586.086 264.653 593.358 270.859 596.035L268.775 598.972C263.848 596.746 259.608 591.89 257.642 586.063C255.676 592.245 251.412 597.598 246.604 600.014L244.377 597.077C250.418 594.187 255.676 586.229 255.7 578.933V573.438H245.751V570.358H269.486V573.438H259.442V578.933ZM275.36 608.115V566H279.102V608.115H275.36Z" fill="#667085"/>
<path d="M225.841 570.169V597.551H206.37V570.169H225.841ZM210.018 594.519H222.193V573.153H210.018V594.519ZM234.889 608.21V566H238.632V608.21H234.889Z" fill="#667085"/>
<path d="M198.162 566V608.21H194.419V566H198.162ZM165 583.955C165.024 575.001 169.477 569.292 175.754 569.269C182.007 569.292 186.531 575.001 186.508 583.955C186.531 592.932 182.007 598.617 175.754 598.593C169.477 598.617 165.024 592.932 165 583.955ZM168.6 583.955C168.6 590.8 171.538 595.301 175.754 595.277C179.994 595.301 182.907 590.8 182.907 583.955C182.907 577.109 179.994 572.609 175.754 572.585C171.538 572.609 168.6 577.109 168.6 583.955Z" fill="#667085"/>
</g>
<defs>
<clipPath id="clip0_374_1584">
<rect width="540" height="136" fill="white" transform="translate(0 472)"/>
</clipPath>
</defs>
</svg>
