<svg width="92" height="33" viewBox="0 0 92 33" fill="none" xmlns="http://www.w3.org/2000/svg">
<path d="M81.7781 32.8513V22.4459H86.8738C87.6508 22.4459 88.3183 22.5797 88.8762 22.8473C89.444 23.1148 89.8824 23.4964 90.1912 23.9919C90.51 24.4874 90.6694 25.077 90.6694 25.7608C90.6694 26.3851 90.5449 26.9153 90.2958 27.3513C90.0567 27.7874 89.723 28.1392 89.2946 28.4067C88.8762 28.6644 88.393 28.8576 87.8451 28.9865C87.2972 29.1054 86.7194 29.1648 86.1117 29.1648H84.4081V32.8513H81.7781ZM88.3084 32.8513L86.037 28.9121L88.5176 28.4365L91.2223 32.8513H88.3084ZM84.4081 27.2175H86.4255C86.9634 27.2175 87.3669 27.1085 87.6359 26.8905C87.9148 26.6626 88.0543 26.3306 88.0543 25.8946C88.0543 25.4684 87.9148 25.1563 87.6359 24.9581C87.3669 24.7599 86.9585 24.6608 86.4105 24.6608H84.4081V27.2175Z" fill="url(#paint0_linear_131_450)"/>
<path d="M75.1354 32.9999C74.0196 32.9999 73.0533 32.777 72.2364 32.331C71.4294 31.8752 70.8068 31.2459 70.3684 30.4432C69.9301 29.6405 69.7109 28.704 69.7109 27.6337C69.7109 26.5635 69.9351 25.6319 70.3834 24.8391C70.8416 24.0364 71.4792 23.4121 72.2961 22.9662C73.113 22.5202 74.0595 22.2972 75.1354 22.2972C76.2512 22.2972 77.2125 22.5252 78.0195 22.981C78.8364 23.427 79.464 24.0513 79.9023 24.854C80.3407 25.6468 80.5598 26.5783 80.5598 27.6486C80.5598 28.7189 80.3307 29.6554 79.8724 30.4581C79.4241 31.2608 78.7915 31.8851 77.9746 32.331C77.1577 32.777 76.2113 32.9999 75.1354 32.9999ZM75.1354 30.577C75.6933 30.577 76.1715 30.4779 76.5699 30.2797C76.9784 30.0716 77.2972 29.7495 77.5263 29.3135C77.7555 28.8774 77.87 28.3175 77.87 27.6337C77.87 26.9499 77.7604 26.395 77.5413 25.9689C77.3221 25.5427 77.0083 25.2306 76.5998 25.0324C76.1914 24.8243 75.7032 24.7202 75.1354 24.7202C74.5775 24.7202 74.0943 24.8243 73.6859 25.0324C73.2774 25.2306 72.9586 25.5427 72.7295 25.9689C72.5103 26.395 72.4007 26.9549 72.4007 27.6486C72.4007 28.3324 72.5103 28.8923 72.7295 29.3283C72.9487 29.7544 73.2625 30.0716 73.6709 30.2797C74.0794 30.4779 74.5675 30.577 75.1354 30.577Z" fill="url(#paint1_linear_131_450)"/>
<path d="M63.6951 32.8513V24.7351H60.3328V22.4459H69.6725V24.7351H66.3251V32.8513H63.6951Z" fill="url(#paint2_linear_131_450)"/>
<path d="M50.75 32.8513L54.6652 22.4459H57.6538L61.6138 32.8513H58.7895L56.1745 25.1662H56.1296L53.4697 32.8513H50.75ZM53.7088 31.0824V29.0311H58.5953V31.0824H53.7088Z" fill="url(#paint3_linear_131_450)"/>
<path d="M41.3534 32.8513V22.4459H46.4491C47.2261 22.4459 47.8936 22.5797 48.4515 22.8473C49.0193 23.1148 49.4577 23.4964 49.7665 23.9919C50.0853 24.4874 50.2447 25.077 50.2447 25.7608C50.2447 26.3851 50.1202 26.9153 49.8711 27.3513C49.632 27.7874 49.2983 28.1392 48.8699 28.4067C48.4515 28.6644 47.9683 28.8576 47.4204 28.9865C46.8725 29.1054 46.2946 29.1648 45.6869 29.1648H43.9834V32.8513H41.3534ZM47.8836 32.8513L45.6122 28.9121L48.0928 28.4365L50.7976 32.8513H47.8836ZM43.9834 27.2175H46.0008C46.5387 27.2175 46.9422 27.1085 47.2112 26.8905C47.4901 26.6626 47.6296 26.3306 47.6296 25.8946C47.6296 25.4684 47.4901 25.1563 47.2112 24.9581C46.9422 24.7599 46.5337 24.6608 45.9858 24.6608H43.9834V27.2175Z" fill="url(#paint4_linear_131_450)"/>
<path d="M31.9949 32.8513V22.4459H40.1839V24.7054H34.6249V26.5189H39.5861V28.5851H34.6249V30.577H40.2885V32.8513H31.9949Z" fill="url(#paint5_linear_131_450)"/>
<path d="M20.5791 32.8513V22.4459H22.9103L27.737 28.2581H27.7669V22.4459H30.382V32.8513H28.2002L23.2241 26.8162H23.1942V32.8513H20.5791Z" fill="url(#paint6_linear_131_450)"/>
<path d="M11.2208 32.8513V22.4459H19.4098V24.7054H13.8508V26.5189H18.812V28.5851H13.8508V30.577H19.5144V32.8513H11.2208Z" fill="url(#paint7_linear_131_450)"/>
<path d="M5.84287 33C4.61751 33 3.56649 32.782 2.68981 32.3459C1.82309 31.9099 1.15562 31.2905 0.687396 30.4878C0.229132 29.6851 0 28.7338 0 27.6338C0 26.7617 0.149434 25.9937 0.448302 25.3297C0.74717 24.6657 1.1606 24.1108 1.6886 23.6648C2.2166 23.209 2.83426 22.8671 3.54158 22.6392C4.25887 22.4112 5.02098 22.2973 5.82792 22.2973C6.31608 22.2973 6.80423 22.3468 7.29238 22.4459C7.78053 22.5351 8.25872 22.6738 8.72694 22.8621L9.20513 23.0554L8.78672 25.0175L8.18898 24.8986C7.77057 24.8193 7.37208 24.7599 6.99351 24.7202C6.61494 24.6707 6.2563 24.6459 5.91758 24.6459C5.26008 24.6459 4.69223 24.75 4.21404 24.9581C3.73585 25.1563 3.36226 25.4784 3.09328 25.9243C2.8243 26.3603 2.68981 26.9401 2.68981 27.6635C2.68981 28.3671 2.81434 28.9468 3.0634 29.4027C3.31245 29.8486 3.67608 30.1806 4.15426 30.3986C4.64242 30.6067 5.23517 30.7108 5.93253 30.7108C6.20151 30.7108 6.47547 30.6959 6.75442 30.6662C7.04332 30.6365 7.33223 30.5919 7.62113 30.5324V28.8675H5.05087V26.9054H9.98219V31.9446C9.64347 32.1428 9.24498 32.3211 8.78672 32.4797C8.33842 32.6383 7.86023 32.7621 7.35215 32.8513C6.85404 32.9504 6.35094 33 5.84287 33Z" fill="url(#paint8_linear_131_450)"/>
<path d="M58.8787 21.7027V11.2973H61.5087V21.7027H58.8787Z" fill="url(#paint9_linear_131_450)"/>
<path d="M48.6302 21.7027V11.2973H53.7259C54.5029 11.2973 55.1704 11.4311 55.7283 11.6987C56.2962 11.9662 56.7345 12.3478 57.0433 12.8432C57.3621 13.3387 57.5215 13.9284 57.5215 14.6122C57.5215 15.2365 57.397 15.7667 57.1479 16.2027C56.9088 16.6387 56.5751 16.9905 56.1467 17.2581C55.7283 17.5158 55.2451 17.709 54.6972 17.8378C54.1493 17.9568 53.5715 18.0162 52.9638 18.0162H51.2602V21.7027H48.6302ZM55.1605 21.7027L52.8891 17.7635L55.3697 17.2878L58.0744 21.7027H55.1605ZM51.2602 16.0689H53.2776C53.8155 16.0689 54.219 15.9599 54.488 15.7419C54.7669 15.514 54.9064 15.182 54.9064 14.746C54.9064 14.3198 54.7669 14.0077 54.488 13.8095C54.219 13.6113 53.8106 13.5122 53.2626 13.5122H51.2602V16.0689Z" fill="url(#paint10_linear_131_450)"/>
<path d="M38.659 21.7027V11.2973H43.7845C44.5716 11.2973 45.244 11.446 45.8019 11.7432C46.3598 12.0405 46.7832 12.4617 47.0721 13.0068C47.371 13.5419 47.5204 14.1811 47.5204 14.9243C47.5204 15.6775 47.361 16.3315 47.0422 16.8865C46.7334 17.4414 46.295 17.8676 45.7272 18.1649C45.1693 18.4622 44.5118 18.6108 43.7547 18.6108H41.289V21.7027H38.659ZM41.289 16.3811H43.1868C43.7148 16.3811 44.1183 16.2721 44.3972 16.0541C44.6762 15.8261 44.8156 15.4496 44.8156 14.9243C44.8156 14.3991 44.6762 14.0324 44.3972 13.8243C44.1183 13.6063 43.7148 13.4973 43.1868 13.4973H41.289V16.3811Z" fill="url(#paint11_linear_131_450)"/>
<path d="M27.0334 21.7027L30.9485 11.2973H33.9372L37.8972 21.7027H35.0729L32.4578 14.0176H32.413L29.7531 21.7027H27.0334ZM29.9922 19.9338V17.8824H34.8787V19.9338H29.9922Z" fill="url(#paint12_linear_131_450)"/>
<path d="M17.6366 21.7027V11.2973H22.7323C23.5094 11.2973 24.1768 11.4311 24.7347 11.6987C25.3026 11.9662 25.7409 12.3478 26.0497 12.8432C26.3685 13.3387 26.5279 13.9284 26.5279 14.6122C26.5279 15.2365 26.4034 15.7667 26.1543 16.2027C25.9152 16.6387 25.5815 16.9905 25.1531 17.2581C24.7347 17.5158 24.2515 17.709 23.7036 17.8378C23.1557 17.9568 22.5779 18.0162 21.9702 18.0162H20.2666V21.7027H17.6366ZM24.1669 21.7027L21.8955 17.7635L24.3761 17.2878L27.0808 21.7027H24.1669ZM20.2666 16.0689H22.284C22.822 16.0689 23.2254 15.9599 23.4944 15.7419C23.7734 15.514 23.9128 15.182 23.9128 14.746C23.9128 14.3198 23.7734 14.0077 23.4944 13.8095C23.2254 13.6113 22.817 13.5122 22.2691 13.5122H20.2666V16.0689Z" fill="url(#paint13_linear_131_450)"/>
<path d="M13.3714 21.7027V11.2973H16.0015V21.7027H13.3714Z" fill="url(#paint14_linear_131_450)"/>
<path d="M0 21.7027V11.2973H2.52543L5.84287 16.4851H5.87276L9.24996 11.2973H11.7455V21.7027H9.1603V15.6527L6.76936 19.25H4.93132L2.58521 15.6527V21.7027H0Z" fill="url(#paint15_linear_131_450)"/>
<path d="M70.7074 10.5541V0.148651H75.8031C76.5801 0.148651 77.2476 0.282435 77.8055 0.550003C78.3733 0.81757 78.8117 1.1991 79.1205 1.6946C79.4393 2.19009 79.5987 2.77973 79.5987 3.46352C79.5987 4.08784 79.4742 4.61802 79.2251 5.05406C78.986 5.49009 78.6523 5.84189 78.2239 6.10946C77.8055 6.36712 77.3223 6.56036 76.7744 6.68919C76.2265 6.80811 75.6486 6.86757 75.041 6.86757H73.3374V10.5541H70.7074ZM77.2376 10.5541L74.9662 6.61487L77.4468 6.13919L80.1516 10.5541H77.2376ZM73.3374 4.92027H75.3548C75.8927 4.92027 76.2962 4.81126 76.5652 4.59325C76.8441 4.36532 76.9836 4.03334 76.9836 3.5973C76.9836 3.17117 76.8441 2.85901 76.5652 2.66081C76.2962 2.46262 75.8877 2.36352 75.3398 2.36352H73.3374V4.92027Z" fill="url(#paint16_linear_131_450)"/>
<path d="M64.0647 10.7027C62.9489 10.7027 61.9826 10.4797 61.1657 10.0338C60.3587 9.57793 59.7361 8.94865 59.2977 8.14595C58.8594 7.34324 58.6402 6.40676 58.6402 5.33649C58.6402 4.26622 58.8644 3.33469 59.3127 2.54189C59.7709 1.73919 60.4085 1.11487 61.2254 0.668919C62.0423 0.222973 62.9888 0 64.0647 0C65.1805 0 66.1418 0.227928 66.9488 0.683784C67.7657 1.12973 68.3933 1.75405 68.8316 2.55676C69.27 3.34955 69.4891 4.28108 69.4891 5.35135C69.4891 6.42162 69.26 7.35811 68.8017 8.16081C68.3534 8.96351 67.7208 9.58784 66.9039 10.0338C66.087 10.4797 65.1406 10.7027 64.0647 10.7027ZM64.0647 8.27973C64.6226 8.27973 65.1008 8.18063 65.4993 7.98243C65.9077 7.77432 66.2265 7.45225 66.4556 7.01622C66.6848 6.58018 66.7993 6.02027 66.7993 5.33649C66.7993 4.6527 66.6897 4.09775 66.4706 3.67162C66.2514 3.2455 65.9376 2.93333 65.5291 2.73514C65.1207 2.52703 64.6325 2.42297 64.0647 2.42297C63.5068 2.42297 63.0236 2.52703 62.6152 2.73514C62.2067 2.93333 61.8879 3.2455 61.6588 3.67162C61.4396 4.09775 61.33 4.65766 61.33 5.35135C61.33 6.03514 61.4396 6.59505 61.6588 7.03108C61.878 7.45721 62.1918 7.77432 62.6002 7.98243C63.0087 8.18063 63.4968 8.27973 64.0647 8.27973Z" fill="url(#paint17_linear_131_450)"/>
<path d="M55.9598 10.5541L53.1804 6.36216H51.3573L51.5216 4.29595H53.1505L55.9748 0.148651H58.8588L55.3621 5.18784L59.1129 10.5541H55.9598ZM49.7434 10.5541V0.148651H52.3734V10.5541H49.7434Z" fill="url(#paint18_linear_131_450)"/>
<path d="M42.7231 7.29862V5.14322H47.9982V7.29862H42.7231Z" fill="url(#paint19_linear_131_450)"/>
<path d="M35.9652 10.5986L31.8259 0.148651H34.7099L37.4446 7.52162H37.5044L40.1344 0.148651H43.0035L38.8194 10.5986H35.9652Z" fill="url(#paint20_linear_131_450)"/>
<path d="M28.3375 10.5541V0.148651H30.9675V10.5541H28.3375Z" fill="url(#paint21_linear_131_450)"/>
<path d="M24.5825 10.5541L22.1468 7.15L19.8006 10.5541H16.9465L20.5628 5.29189L17.0212 0.148651H20.0696L22.2364 3.37433L24.5377 0.148651H27.3769L23.7457 5.21757L27.5264 10.5541H24.5825Z" fill="url(#paint22_linear_131_450)"/>
<path d="M8.87675 10.5541V0.148651H16.8416V2.43784H11.5068V4.54865H16.2438V6.62973H11.5068V10.5541H8.87675Z" fill="url(#paint23_linear_131_450)"/>
<path d="M0 10.5541V0.148651H7.96483V2.43784H2.63004V4.54865H7.36709V6.62973H2.63004V10.5541H0Z" fill="url(#paint24_linear_131_450)"/>
<defs>
<linearGradient id="paint0_linear_131_450" x1="68.4384" y1="4.36033" x2="-0.47988" y2="46.1794" gradientUnits="userSpaceOnUse">
<stop stop-color="#15B79E"/>
<stop offset="1" stop-color="#096B9B"/>
</linearGradient>
<linearGradient id="paint1_linear_131_450" x1="68.4383" y1="4.3603" x2="-0.479911" y2="46.1794" gradientUnits="userSpaceOnUse">
<stop stop-color="#15B79E"/>
<stop offset="1" stop-color="#096B9B"/>
</linearGradient>
<linearGradient id="paint2_linear_131_450" x1="68.4384" y1="4.36033" x2="-0.479836" y2="46.1794" gradientUnits="userSpaceOnUse">
<stop stop-color="#15B79E"/>
<stop offset="1" stop-color="#096B9B"/>
</linearGradient>
<linearGradient id="paint3_linear_131_450" x1="68.4384" y1="4.36034" x2="-0.479869" y2="46.1794" gradientUnits="userSpaceOnUse">
<stop stop-color="#15B79E"/>
<stop offset="1" stop-color="#096B9B"/>
</linearGradient>
<linearGradient id="paint4_linear_131_450" x1="68.4384" y1="4.36034" x2="-0.479804" y2="46.1794" gradientUnits="userSpaceOnUse">
<stop stop-color="#15B79E"/>
<stop offset="1" stop-color="#096B9B"/>
</linearGradient>
<linearGradient id="paint5_linear_131_450" x1="68.4383" y1="4.36034" x2="-0.479949" y2="46.1794" gradientUnits="userSpaceOnUse">
<stop stop-color="#15B79E"/>
<stop offset="1" stop-color="#096B9B"/>
</linearGradient>
<linearGradient id="paint6_linear_131_450" x1="68.4384" y1="4.36034" x2="-0.47983" y2="46.1794" gradientUnits="userSpaceOnUse">
<stop stop-color="#15B79E"/>
<stop offset="1" stop-color="#096B9B"/>
</linearGradient>
<linearGradient id="paint7_linear_131_450" x1="68.4384" y1="4.36033" x2="-0.479841" y2="46.1794" gradientUnits="userSpaceOnUse">
<stop stop-color="#15B79E"/>
<stop offset="1" stop-color="#096B9B"/>
</linearGradient>
<linearGradient id="paint8_linear_131_450" x1="68.4384" y1="4.36033" x2="-0.47988" y2="46.1794" gradientUnits="userSpaceOnUse">
<stop stop-color="#15B79E"/>
<stop offset="1" stop-color="#096B9B"/>
</linearGradient>
<linearGradient id="paint9_linear_131_450" x1="53.8028" y1="4.36036" x2="-15.1154" y2="46.1794" gradientUnits="userSpaceOnUse">
<stop stop-color="#15B79E"/>
<stop offset="1" stop-color="#096B9B"/>
</linearGradient>
<linearGradient id="paint10_linear_131_450" x1="53.8028" y1="4.36037" x2="-15.1155" y2="46.1794" gradientUnits="userSpaceOnUse">
<stop stop-color="#15B79E"/>
<stop offset="1" stop-color="#096B9B"/>
</linearGradient>
<linearGradient id="paint11_linear_131_450" x1="53.8027" y1="4.36037" x2="-15.1155" y2="46.1794" gradientUnits="userSpaceOnUse">
<stop stop-color="#15B79E"/>
<stop offset="1" stop-color="#096B9B"/>
</linearGradient>
<linearGradient id="paint12_linear_131_450" x1="53.8027" y1="4.36036" x2="-15.1155" y2="46.1794" gradientUnits="userSpaceOnUse">
<stop stop-color="#15B79E"/>
<stop offset="1" stop-color="#096B9B"/>
</linearGradient>
<linearGradient id="paint13_linear_131_450" x1="53.8027" y1="4.36036" x2="-15.1155" y2="46.1794" gradientUnits="userSpaceOnUse">
<stop stop-color="#15B79E"/>
<stop offset="1" stop-color="#096B9B"/>
</linearGradient>
<linearGradient id="paint14_linear_131_450" x1="53.8028" y1="4.36036" x2="-15.1154" y2="46.1794" gradientUnits="userSpaceOnUse">
<stop stop-color="#15B79E"/>
<stop offset="1" stop-color="#096B9B"/>
</linearGradient>
<linearGradient id="paint15_linear_131_450" x1="53.8028" y1="4.36036" x2="-15.1154" y2="46.1794" gradientUnits="userSpaceOnUse">
<stop stop-color="#15B79E"/>
<stop offset="1" stop-color="#096B9B"/>
</linearGradient>
<linearGradient id="paint16_linear_131_450" x1="62.7087" y1="4.36036" x2="-6.2095" y2="46.1794" gradientUnits="userSpaceOnUse">
<stop stop-color="#15B79E"/>
<stop offset="1" stop-color="#096B9B"/>
</linearGradient>
<linearGradient id="paint17_linear_131_450" x1="62.7087" y1="4.36035" x2="-6.20951" y2="46.1794" gradientUnits="userSpaceOnUse">
<stop stop-color="#15B79E"/>
<stop offset="1" stop-color="#096B9B"/>
</linearGradient>
<linearGradient id="paint18_linear_131_450" x1="62.7087" y1="4.36036" x2="-6.20954" y2="46.1794" gradientUnits="userSpaceOnUse">
<stop stop-color="#15B79E"/>
<stop offset="1" stop-color="#096B9B"/>
</linearGradient>
<linearGradient id="paint19_linear_131_450" x1="62.7087" y1="4.36033" x2="-6.20952" y2="46.1794" gradientUnits="userSpaceOnUse">
<stop stop-color="#15B79E"/>
<stop offset="1" stop-color="#096B9B"/>
</linearGradient>
<linearGradient id="paint20_linear_131_450" x1="62.7088" y1="4.36036" x2="-6.20947" y2="46.1794" gradientUnits="userSpaceOnUse">
<stop stop-color="#15B79E"/>
<stop offset="1" stop-color="#096B9B"/>
</linearGradient>
<linearGradient id="paint21_linear_131_450" x1="62.7086" y1="4.36036" x2="-6.20959" y2="46.1794" gradientUnits="userSpaceOnUse">
<stop stop-color="#15B79E"/>
<stop offset="1" stop-color="#096B9B"/>
</linearGradient>
<linearGradient id="paint22_linear_131_450" x1="62.7087" y1="4.36036" x2="-6.20955" y2="46.1794" gradientUnits="userSpaceOnUse">
<stop stop-color="#15B79E"/>
<stop offset="1" stop-color="#096B9B"/>
</linearGradient>
<linearGradient id="paint23_linear_131_450" x1="62.7088" y1="4.36036" x2="-6.20947" y2="46.1794" gradientUnits="userSpaceOnUse">
<stop stop-color="#15B79E"/>
<stop offset="1" stop-color="#096B9B"/>
</linearGradient>
<linearGradient id="paint24_linear_131_450" x1="62.7087" y1="4.36036" x2="-6.20951" y2="46.1794" gradientUnits="userSpaceOnUse">
<stop stop-color="#15B79E"/>
<stop offset="1" stop-color="#096B9B"/>
</linearGradient>
</defs>
</svg>
