<svg width="147" height="55" viewBox="0 0 147 55" fill="none" xmlns="http://www.w3.org/2000/svg">
<path d="M131.425 54V37.2H139.609C140.857 37.2 141.929 37.416 142.825 37.848C143.737 38.28 144.441 38.896 144.937 39.696C145.449 40.496 145.705 41.448 145.705 42.552C145.705 43.56 145.505 44.416 145.105 45.12C144.721 45.824 144.185 46.392 143.497 46.824C142.825 47.24 142.049 47.552 141.169 47.76C140.289 47.952 139.361 48.048 138.385 48.048H135.649V54H131.425ZM141.913 54L138.265 47.64L142.249 46.872L146.593 54H141.913ZM135.649 44.904H138.889C139.753 44.904 140.401 44.728 140.833 44.376C141.281 44.008 141.505 43.472 141.505 42.768C141.505 42.08 141.281 41.576 140.833 41.256C140.401 40.936 139.745 40.776 138.865 40.776H135.649V44.904Z" fill="url(#paint0_linear_65_940)"/>
<path d="M120.756 54.24C118.964 54.24 117.412 53.88 116.1 53.16C114.804 52.424 113.804 51.408 113.1 50.112C112.396 48.816 112.044 47.304 112.044 45.576C112.044 43.848 112.404 42.344 113.124 41.064C113.86 39.768 114.884 38.76 116.196 38.04C117.508 37.32 119.028 36.96 120.756 36.96C122.548 36.96 124.092 37.328 125.388 38.064C126.7 38.784 127.708 39.792 128.412 41.088C129.116 42.368 129.468 43.872 129.468 45.6C129.468 47.328 129.1 48.84 128.364 50.136C127.644 51.432 126.628 52.44 125.316 53.16C124.004 53.88 122.484 54.24 120.756 54.24ZM120.756 50.328C121.652 50.328 122.42 50.168 123.06 49.848C123.716 49.512 124.228 48.992 124.596 48.288C124.964 47.584 125.148 46.68 125.148 45.576C125.148 44.472 124.972 43.576 124.62 42.888C124.268 42.2 123.764 41.696 123.108 41.376C122.452 41.04 121.668 40.872 120.756 40.872C119.86 40.872 119.084 41.04 118.428 41.376C117.772 41.696 117.26 42.2 116.892 42.888C116.54 43.576 116.364 44.48 116.364 45.6C116.364 46.704 116.54 47.608 116.892 48.312C117.244 49 117.748 49.512 118.404 49.848C119.06 50.168 119.844 50.328 120.756 50.328Z" fill="url(#paint1_linear_65_940)"/>
<path d="M102.382 54V40.896H96.9822V37.2H111.982V40.896H106.606V54H102.382Z" fill="url(#paint2_linear_65_940)"/>
<path d="M81.5916 54L87.8796 37.2H92.6796L99.0396 54H94.5035L90.3036 41.592H90.2316L85.9595 54H81.5916ZM86.3436 51.144V47.832H94.1916V51.144H86.3436Z" fill="url(#paint3_linear_65_940)"/>
<path d="M66.5 54V37.2H74.684C75.932 37.2 77.004 37.416 77.9 37.848C78.812 38.28 79.516 38.896 80.012 39.696C80.524 40.496 80.78 41.448 80.78 42.552C80.78 43.56 80.58 44.416 80.18 45.12C79.796 45.824 79.26 46.392 78.572 46.824C77.9 47.24 77.124 47.552 76.244 47.76C75.364 47.952 74.436 48.048 73.46 48.048H70.724V54H66.5ZM76.988 54L73.34 47.64L77.324 46.872L81.668 54H76.988ZM70.724 44.904H73.964C74.828 44.904 75.476 44.728 75.908 44.376C76.356 44.008 76.58 43.472 76.58 42.768C76.58 42.08 76.356 41.576 75.908 41.256C75.476 40.936 74.82 40.776 73.94 40.776H70.724V44.904Z" fill="url(#paint4_linear_65_940)"/>
<path d="M51.4697 54V37.2H64.6217V40.848H55.6937V43.776H63.6617V47.112H55.6937V50.328H64.7897V54H51.4697Z" fill="url(#paint5_linear_65_940)"/>
<path d="M33.1353 54V37.2H36.8793L44.6313 46.584H44.6793V37.2H48.8793V54H45.3753L37.3833 44.256H37.3353V54H33.1353Z" fill="url(#paint6_linear_65_940)"/>
<path d="M18.1052 54V37.2H31.2572V40.848H22.3292V43.776H30.2972V47.112H22.3292V50.328H31.4252V54H18.1052Z" fill="url(#paint7_linear_65_940)"/>
<path d="M9.46799 54.24C7.49999 54.24 5.81199 53.888 4.40398 53.184C3.01198 52.48 1.93998 51.48 1.18798 50.184C0.451984 48.888 0.0839844 47.352 0.0839844 45.576C0.0839844 44.168 0.323984 42.928 0.803984 41.856C1.28398 40.784 1.94798 39.888 2.79598 39.168C3.64398 38.432 4.63598 37.88 5.77198 37.512C6.92399 37.144 8.14799 36.96 9.44398 36.96C10.228 36.96 11.012 37.04 11.796 37.2C12.58 37.344 13.348 37.568 14.1 37.872L14.868 38.184L14.196 41.352L13.236 41.16C12.564 41.032 11.924 40.936 11.316 40.872C10.708 40.792 10.132 40.752 9.58798 40.752C8.53198 40.752 7.61998 40.92 6.85198 41.256C6.08398 41.576 5.48398 42.096 5.05198 42.816C4.61998 43.52 4.40398 44.456 4.40398 45.624C4.40398 46.76 4.60398 47.696 5.00398 48.432C5.40398 49.152 5.98798 49.688 6.75598 50.04C7.53998 50.376 8.49198 50.544 9.61198 50.544C10.044 50.544 10.484 50.52 10.932 50.472C11.396 50.424 11.86 50.352 12.324 50.256V47.568H8.19598V44.4H16.116V52.536C15.572 52.856 14.932 53.144 14.196 53.4C13.476 53.656 12.708 53.856 11.892 54C11.092 54.16 10.284 54.24 9.46799 54.24Z" fill="url(#paint8_linear_65_940)"/>
<path d="M118.152 36V19.2H122.376V36H118.152Z" fill="url(#paint9_linear_65_940)"/>
<path d="M101.693 36V19.2H109.877C111.125 19.2 112.197 19.416 113.093 19.848C114.005 20.28 114.709 20.896 115.205 21.696C115.717 22.496 115.973 23.448 115.973 24.552C115.973 25.56 115.773 26.416 115.373 27.12C114.989 27.824 114.453 28.392 113.765 28.824C113.093 29.24 112.317 29.552 111.437 29.76C110.557 29.952 109.629 30.048 108.653 30.048H105.917V36H101.693ZM112.181 36L108.533 29.64L112.517 28.872L116.861 36H112.181ZM105.917 26.904H109.157C110.021 26.904 110.669 26.728 111.101 26.376C111.549 26.008 111.773 25.472 111.773 24.768C111.773 24.08 111.549 23.576 111.101 23.256C110.669 22.936 110.013 22.776 109.133 22.776H105.917V26.904Z" fill="url(#paint10_linear_65_940)"/>
<path d="M85.6782 36V19.2H93.9102C95.1742 19.2 96.2542 19.44 97.1502 19.92C98.0462 20.4 98.7262 21.08 99.1902 21.96C99.6702 22.824 99.9102 23.856 99.9102 25.056C99.9102 26.272 99.6542 27.328 99.1422 28.224C98.6462 29.12 97.9422 29.808 97.0302 30.288C96.1342 30.768 95.0782 31.008 93.8622 31.008H89.9022V36H85.6782ZM89.9022 27.408H92.9502C93.7982 27.408 94.4462 27.232 94.8942 26.88C95.3422 26.512 95.5662 25.904 95.5662 25.056C95.5662 24.208 95.3422 23.616 94.8942 23.28C94.4462 22.928 93.7982 22.752 92.9502 22.752H89.9022V27.408Z" fill="url(#paint11_linear_65_940)"/>
<path d="M67.0068 36L73.2948 19.2H78.0948L84.4548 36H79.9188L75.7188 23.592H75.6468L71.3748 36H67.0068ZM71.7588 33.144V29.832H79.6068V33.144H71.7588Z" fill="url(#paint12_linear_65_940)"/>
<path d="M51.915 36V19.2H60.099C61.347 19.2 62.419 19.416 63.315 19.848C64.227 20.28 64.931 20.896 65.427 21.696C65.939 22.496 66.195 23.448 66.195 24.552C66.195 25.56 65.995 26.416 65.595 27.12C65.211 27.824 64.675 28.392 63.987 28.824C63.315 29.24 62.539 29.552 61.659 29.76C60.779 29.952 59.851 30.048 58.875 30.048H56.139V36H51.915ZM62.403 36L58.755 29.64L62.739 28.872L67.083 36H62.403ZM56.139 26.904H59.379C60.243 26.904 60.891 26.728 61.323 26.376C61.771 26.008 61.995 25.472 61.995 24.768C61.995 24.08 61.771 23.576 61.323 23.256C60.891 22.936 60.235 22.776 59.355 22.776H56.139V26.904Z" fill="url(#paint13_linear_65_940)"/>
<path d="M45.0649 36V19.2H49.2889V36H45.0649Z" fill="url(#paint14_linear_65_940)"/>
<path d="M23.5896 36V19.2H27.6456L32.9736 27.576H33.0216L38.4456 19.2H42.4536V36H38.3016V26.232L34.4616 32.04H31.5096L27.7416 26.232V36H23.5896Z" fill="url(#paint15_linear_65_940)"/>
<path d="M122.846 18V1.20001H131.03C132.278 1.20001 133.35 1.41601 134.246 1.84801C135.158 2.28001 135.862 2.89601 136.358 3.69601C136.87 4.49601 137.126 5.44801 137.126 6.55201C137.126 7.56001 136.926 8.41601 136.526 9.12001C136.142 9.82401 135.606 10.392 134.918 10.824C134.246 11.24 133.47 11.552 132.59 11.76C131.71 11.952 130.782 12.048 129.806 12.048H127.07V18H122.846ZM133.334 18L129.686 11.64L133.67 10.872L138.014 18H133.334ZM127.07 8.90401H130.31C131.174 8.90401 131.822 8.72801 132.254 8.37601C132.702 8.00801 132.926 7.47201 132.926 6.76801C132.926 6.08001 132.702 5.57601 132.254 5.25601C131.822 4.93601 131.166 4.77601 130.286 4.77601H127.07V8.90401Z" fill="url(#paint16_linear_65_940)"/>
<path d="M112.178 18.24C110.386 18.24 108.834 17.88 107.522 17.16C106.226 16.424 105.226 15.408 104.522 14.112C103.818 12.816 103.466 11.304 103.466 9.57602C103.466 7.84802 103.826 6.34402 104.546 5.06402C105.282 3.76802 106.306 2.76002 107.618 2.04002C108.93 1.32002 110.45 0.960022 112.178 0.960022C113.97 0.960022 115.514 1.32802 116.81 2.06402C118.122 2.78402 119.13 3.79202 119.834 5.08802C120.538 6.36802 120.89 7.87202 120.89 9.60002C120.89 11.328 120.522 12.84 119.786 14.136C119.066 15.432 118.05 16.44 116.738 17.16C115.426 17.88 113.906 18.24 112.178 18.24ZM112.178 14.328C113.074 14.328 113.842 14.168 114.482 13.848C115.138 13.512 115.65 12.992 116.018 12.288C116.386 11.584 116.57 10.68 116.57 9.57602C116.57 8.47202 116.394 7.57602 116.042 6.88802C115.69 6.20002 115.186 5.69602 114.53 5.37602C113.874 5.04002 113.09 4.87202 112.178 4.87202C111.282 4.87202 110.506 5.04002 109.85 5.37602C109.194 5.69602 108.682 6.20002 108.314 6.88802C107.962 7.57602 107.786 8.48002 107.786 9.60002C107.786 10.704 107.962 11.608 108.314 12.312C108.666 13 109.17 13.512 109.826 13.848C110.482 14.168 111.266 14.328 112.178 14.328Z" fill="url(#paint17_linear_65_940)"/>
<path d="M99.161 18L94.697 11.232H91.769L92.033 7.89601H94.649L99.185 1.20001H103.817L98.201 9.33601L104.225 18H99.161ZM89.177 18V1.20001H93.401V18H89.177Z" fill="url(#paint18_linear_65_940)"/>
<path d="M77.9021 12.744V9.26404H86.3741V12.744H77.9021Z" fill="url(#paint19_linear_65_940)"/>
<path d="M67.0484 18.072L60.4004 1.20001H65.0324L69.4244 13.104H69.5204L73.7444 1.20001H78.3524L71.6324 18.072H67.0484Z" fill="url(#paint20_linear_65_940)"/>
<path d="M54.7979 18V1.20001H59.0219V18H54.7979Z" fill="url(#paint21_linear_65_940)"/>
<path d="M48.7672 18L44.8552 12.504L41.0872 18H36.5032L42.3112 9.50401L36.6232 1.20001H41.5192L44.9992 6.40801L48.6952 1.20001H53.2552L47.4232 9.38401L53.4952 18H48.7672Z" fill="url(#paint22_linear_65_940)"/>
<path d="M23.5427 18V1.20001H36.3347V4.89601H27.7667V8.30401H35.3747V11.664H27.7667V18H23.5427Z" fill="url(#paint23_linear_65_940)"/>
<path d="M9.28613 18V1.20001H22.0781V4.89601H13.5101V8.30401H21.1181V11.664H13.5101V18H9.28613Z" fill="url(#paint24_linear_65_940)"/>
<defs>
<linearGradient id="paint0_linear_65_940" x1="110" y1="8" x2="-0.999865" y2="75" gradientUnits="userSpaceOnUse">
<stop stop-color="#15B79E"/>
<stop offset="1" stop-color="#096B9B"/>
</linearGradient>
<linearGradient id="paint1_linear_65_940" x1="110" y1="8.00001" x2="-0.999926" y2="75" gradientUnits="userSpaceOnUse">
<stop stop-color="#15B79E"/>
<stop offset="1" stop-color="#096B9B"/>
</linearGradient>
<linearGradient id="paint2_linear_65_940" x1="110" y1="8" x2="-0.999805" y2="75" gradientUnits="userSpaceOnUse">
<stop stop-color="#15B79E"/>
<stop offset="1" stop-color="#096B9B"/>
</linearGradient>
<linearGradient id="paint3_linear_65_940" x1="110" y1="8.00001" x2="-0.999862" y2="75" gradientUnits="userSpaceOnUse">
<stop stop-color="#15B79E"/>
<stop offset="1" stop-color="#096B9B"/>
</linearGradient>
<linearGradient id="paint4_linear_65_940" x1="110" y1="8.00001" x2="-0.999741" y2="75" gradientUnits="userSpaceOnUse">
<stop stop-color="#15B79E"/>
<stop offset="1" stop-color="#096B9B"/>
</linearGradient>
<linearGradient id="paint5_linear_65_940" x1="110" y1="8.00001" x2="-0.999983" y2="75" gradientUnits="userSpaceOnUse">
<stop stop-color="#15B79E"/>
<stop offset="1" stop-color="#096B9B"/>
</linearGradient>
<linearGradient id="paint6_linear_65_940" x1="110" y1="8.00001" x2="-0.999795" y2="75" gradientUnits="userSpaceOnUse">
<stop stop-color="#15B79E"/>
<stop offset="1" stop-color="#096B9B"/>
</linearGradient>
<linearGradient id="paint7_linear_65_940" x1="110" y1="8" x2="-0.999808" y2="75" gradientUnits="userSpaceOnUse">
<stop stop-color="#15B79E"/>
<stop offset="1" stop-color="#096B9B"/>
</linearGradient>
<linearGradient id="paint8_linear_65_940" x1="110" y1="8.00002" x2="-0.999867" y2="75" gradientUnits="userSpaceOnUse">
<stop stop-color="#15B79E"/>
<stop offset="1" stop-color="#096B9B"/>
</linearGradient>
<linearGradient id="paint9_linear_65_940" x1="110" y1="8.00001" x2="-0.999867" y2="75" gradientUnits="userSpaceOnUse">
<stop stop-color="#15B79E"/>
<stop offset="1" stop-color="#096B9B"/>
</linearGradient>
<linearGradient id="paint10_linear_65_940" x1="110" y1="8.00001" x2="-0.999922" y2="75" gradientUnits="userSpaceOnUse">
<stop stop-color="#15B79E"/>
<stop offset="1" stop-color="#096B9B"/>
</linearGradient>
<linearGradient id="paint11_linear_65_940" x1="110" y1="8.00002" x2="-0.999921" y2="75" gradientUnits="userSpaceOnUse">
<stop stop-color="#15B79E"/>
<stop offset="1" stop-color="#096B9B"/>
</linearGradient>
<linearGradient id="paint12_linear_65_940" x1="110" y1="8.00001" x2="-0.999925" y2="75" gradientUnits="userSpaceOnUse">
<stop stop-color="#15B79E"/>
<stop offset="1" stop-color="#096B9B"/>
</linearGradient>
<linearGradient id="paint13_linear_65_940" x1="110" y1="8.00001" x2="-0.999989" y2="75" gradientUnits="userSpaceOnUse">
<stop stop-color="#15B79E"/>
<stop offset="1" stop-color="#096B9B"/>
</linearGradient>
<linearGradient id="paint14_linear_65_940" x1="110" y1="8" x2="-0.999805" y2="75" gradientUnits="userSpaceOnUse">
<stop stop-color="#15B79E"/>
<stop offset="1" stop-color="#096B9B"/>
</linearGradient>
<linearGradient id="paint15_linear_65_940" x1="110" y1="8" x2="-0.999805" y2="75" gradientUnits="userSpaceOnUse">
<stop stop-color="#15B79E"/>
<stop offset="1" stop-color="#096B9B"/>
</linearGradient>
<linearGradient id="paint16_linear_65_940" x1="110" y1="8.00001" x2="-0.99986" y2="75" gradientUnits="userSpaceOnUse">
<stop stop-color="#15B79E"/>
<stop offset="1" stop-color="#096B9B"/>
</linearGradient>
<linearGradient id="paint17_linear_65_940" x1="110" y1="8.00001" x2="-0.999926" y2="75" gradientUnits="userSpaceOnUse">
<stop stop-color="#15B79E"/>
<stop offset="1" stop-color="#096B9B"/>
</linearGradient>
<linearGradient id="paint18_linear_65_940" x1="110" y1="8.00001" x2="-0.999922" y2="75" gradientUnits="userSpaceOnUse">
<stop stop-color="#15B79E"/>
<stop offset="1" stop-color="#096B9B"/>
</linearGradient>
<linearGradient id="paint19_linear_65_940" x1="110" y1="8.00003" x2="-0.999864" y2="75" gradientUnits="userSpaceOnUse">
<stop stop-color="#15B79E"/>
<stop offset="1" stop-color="#096B9B"/>
</linearGradient>
<linearGradient id="paint20_linear_65_940" x1="110" y1="8" x2="-0.999804" y2="75" gradientUnits="userSpaceOnUse">
<stop stop-color="#15B79E"/>
<stop offset="1" stop-color="#096B9B"/>
</linearGradient>
<linearGradient id="paint21_linear_65_940" x1="110" y1="8.00001" x2="-0.999986" y2="75" gradientUnits="userSpaceOnUse">
<stop stop-color="#15B79E"/>
<stop offset="1" stop-color="#096B9B"/>
</linearGradient>
<linearGradient id="paint22_linear_65_940" x1="110" y1="8.00001" x2="-0.999925" y2="75" gradientUnits="userSpaceOnUse">
<stop stop-color="#15B79E"/>
<stop offset="1" stop-color="#096B9B"/>
</linearGradient>
<linearGradient id="paint23_linear_65_940" x1="110" y1="8" x2="-0.999806" y2="75" gradientUnits="userSpaceOnUse">
<stop stop-color="#15B79E"/>
<stop offset="1" stop-color="#096B9B"/>
</linearGradient>
<linearGradient id="paint24_linear_65_940" x1="110" y1="8.00001" x2="-0.999861" y2="75" gradientUnits="userSpaceOnUse">
<stop stop-color="#15B79E"/>
<stop offset="1" stop-color="#096B9B"/>
</linearGradient>
</defs>
</svg>
