<svg width="174" height="46" viewBox="0 0 174 46" fill="none" xmlns="http://www.w3.org/2000/svg">
<path d="M168.504 45.6771L161.909 36.7499H157.859L158.534 33.222H161.663L168.259 24.2029H173.106L165.283 34.7252L173.627 45.6771H168.504ZM155.773 45.6771V24.2029H159.792V45.6771H155.773Z" fill="#006351"/>
<path d="M116.998 45.9839C114.789 45.9839 112.867 45.5237 111.231 44.6034C109.595 43.6626 108.327 42.3639 107.427 40.7074C106.527 39.0508 106.077 37.1181 106.077 34.9093C106.077 32.721 106.537 30.7985 107.458 29.142C108.378 27.4854 109.656 26.1969 111.292 25.2766C112.949 24.3563 114.851 23.8961 116.998 23.8961C119.227 23.8961 121.16 24.3665 122.796 25.3073C124.432 26.2276 125.7 27.5161 126.6 29.1726C127.5 30.8292 127.95 32.7517 127.95 34.94C127.95 37.1283 127.49 39.0508 126.57 40.7074C125.649 42.3639 124.361 43.6626 122.704 44.6034C121.068 45.5237 119.166 45.9839 116.998 45.9839ZM116.998 42.2719C118.369 42.2719 119.565 41.9958 120.588 41.4436C121.61 40.871 122.408 40.0324 122.98 38.9281C123.553 37.8237 123.839 36.4841 123.839 34.9093C123.839 33.3345 123.553 32.0052 122.98 30.9212C122.428 29.8373 121.641 29.0192 120.618 28.4671C119.596 27.8944 118.389 27.6081 116.998 27.6081C115.648 27.6081 114.462 27.8944 113.44 28.4671C112.417 29.0192 111.619 29.8373 111.047 30.9212C110.474 32.0052 110.188 33.3448 110.188 34.94C110.188 36.5148 110.464 37.8544 111.016 38.9587C111.589 40.0427 112.386 40.871 113.409 41.4436C114.432 41.9958 115.628 42.2719 116.998 42.2719Z" fill="#006351"/>
<path d="M86.2228 45.6771V24.2029H96.3157C97.7882 24.2029 99.0051 24.4483 99.9663 24.9391C100.948 25.43 101.684 26.1049 102.175 26.9638C102.666 27.8024 102.911 28.7738 102.911 29.8782C102.911 30.819 102.737 31.7188 102.39 32.5778C102.042 33.4163 101.357 34.0708 100.334 34.5412V34.5718C101.316 34.8582 102.134 35.4206 102.789 36.2591C103.443 37.0976 103.77 38.0998 103.77 39.2655C103.77 40.5539 103.494 41.6788 102.942 42.64C102.39 43.6012 101.582 44.3477 100.518 44.8795C99.4754 45.4112 98.187 45.6771 96.6531 45.6771H86.2228ZM90.2415 42.1492H96.4384C97.5223 42.1492 98.3302 41.914 98.8619 41.4436C99.3936 40.9528 99.6595 40.196 99.6595 39.1735C99.6595 38.2736 99.3936 37.5987 98.8619 37.1488C98.3302 36.6988 97.5837 36.4739 96.6224 36.4739H90.2415V42.1492ZM90.2415 32.9459H96.3157C97.236 32.9459 97.9211 32.7312 98.3711 32.3017C98.8414 31.8518 99.0766 31.1871 99.0766 30.3077C99.0766 29.4692 98.8312 28.8352 98.3404 28.4057C97.87 27.9557 97.1133 27.7308 96.0703 27.7308H90.2415V32.9459Z" fill="#006351"/>
<path d="M78.6265 45.6771L72.0309 36.7499H67.9815L68.6564 33.222H71.7855L78.3811 24.2029H83.2282L75.4054 34.7252L83.7497 45.6771H78.6265ZM65.8954 45.6771V24.2029H69.9141V45.6771H65.8954Z" fill="#006351"/>
<path d="M51.4624 45.9839C49.2536 45.9839 47.3311 45.5237 45.695 44.6034C44.0589 43.6626 42.7909 42.3639 41.891 40.7074C40.9911 39.0508 40.5412 37.1181 40.5412 34.9093C40.5412 32.721 41.0013 30.7985 41.9217 29.142C42.842 27.4854 44.1202 26.1969 45.7563 25.2766C47.4129 24.3563 49.3149 23.8961 51.4624 23.8961C53.6916 23.8961 55.6243 24.3665 57.2604 25.3073C58.8965 26.2276 60.1645 27.5161 61.0644 29.1726C61.9643 30.8292 62.4142 32.7517 62.4142 34.94C62.4142 37.1283 61.954 39.0508 61.0337 40.7074C60.1134 42.3639 58.8249 43.6626 57.1684 44.6034C55.5322 45.5237 53.6302 45.9839 51.4624 45.9839ZM51.4624 42.2719C52.8326 42.2719 54.029 41.9958 55.0516 41.4436C56.0742 40.871 56.8718 40.0324 57.4445 38.9281C58.0171 37.8237 58.3034 36.4841 58.3034 34.9093C58.3034 33.3345 58.0171 32.0052 57.4445 30.9212C56.8923 29.8373 56.1049 29.0192 55.0823 28.4671C54.0597 27.8944 52.8531 27.6081 51.4624 27.6081C50.1125 27.6081 48.9263 27.8944 47.9038 28.4671C46.8812 29.0192 46.0836 29.8373 45.5109 30.9212C44.9383 32.0052 44.652 33.3448 44.652 34.94C44.652 36.5148 44.9281 37.8544 45.4802 38.9587C46.0529 40.0427 46.8505 40.871 47.8731 41.4436C48.8957 41.9958 50.0921 42.2719 51.4624 42.2719Z" fill="#006351"/>
<path d="M27.1205 45.9839C24.9117 45.9839 22.9893 45.5237 21.3532 44.6034C19.717 43.6626 18.449 42.3639 17.5492 40.7074C16.6493 39.0508 16.1994 37.1181 16.1994 34.9093C16.1994 32.721 16.6595 30.7985 17.5798 29.142C18.5002 27.4854 19.7784 26.1969 21.4145 25.2766C23.0711 24.3563 24.9731 23.8961 27.1205 23.8961C29.3498 23.8961 31.2824 24.3665 32.9186 25.3073C34.5547 26.2276 35.8227 27.5161 36.7226 29.1726C37.6224 30.8292 38.0724 32.7517 38.0724 34.94C38.0724 37.1283 37.6122 39.0508 36.6919 40.7074C35.7716 42.3639 34.4831 43.6626 32.8265 44.6034C31.1904 45.5237 29.2884 45.9839 27.1205 45.9839ZM27.1205 42.2719C28.4908 42.2719 29.6872 41.9958 30.7098 41.4436C31.7324 40.871 32.53 40.0324 33.1026 38.9281C33.6753 37.8237 33.9616 36.4841 33.9616 34.9093C33.9616 33.3345 33.6753 32.0052 33.1026 30.9212C32.5504 29.8373 31.763 29.0192 30.7405 28.4671C29.7179 27.8944 28.5112 27.6081 27.1205 27.6081C25.7707 27.6081 24.5845 27.8944 23.5619 28.4671C22.5394 29.0192 21.7417 29.8373 21.1691 30.9212C20.5965 32.0052 20.3101 33.3448 20.3101 34.94C20.3101 36.5148 20.5862 37.8544 21.1384 38.9587C21.7111 40.0427 22.5087 40.871 23.5313 41.4436C24.5538 41.9958 25.7503 42.2719 27.1205 42.2719Z" fill="#006351"/>
<path d="M0 45.6771V24.2029H4.01875V42.1492H15.3387V45.6771H0Z" fill="#006351"/>
<path d="M86.9193 21.781L95.2635 0.306759H99.9265L108.332 21.781H103.915L97.6257 4.6016H97.5336L91.0914 21.781H86.9193ZM92.1037 17.5168V13.9889H103.025V17.5168H92.1037Z" fill="#006351"/>
<path d="M81.5625 21.781L74.9668 12.8538H70.9174L71.5923 9.32593H74.7214L81.317 0.306759H86.1641L78.3413 10.8291L86.6856 21.781H81.5625ZM68.8313 21.781V0.306759H72.8501V21.781H68.8313Z" fill="#006351"/>
<path d="M44.9688 21.781V0.306759H48.466L60.3075 14.173H60.3689V0.306759H64.3569V21.781H61.2892L49.0182 7.30122H48.9569V21.781H44.9688Z" fill="#006351"/>
<path d="M30.5358 22.0878C28.327 22.0878 26.4046 21.6276 24.7684 20.7073C23.1323 19.7665 21.8643 18.4678 20.9644 16.8112C20.0646 15.1547 19.6146 13.222 19.6146 11.0132C19.6146 8.82488 20.0748 6.90242 20.9951 5.24584C21.9154 3.58926 23.1937 2.30081 24.8298 1.38049C26.4864 0.460162 28.3884 0 30.5358 0C32.765 0 34.6977 0.470387 36.3338 1.41116C37.97 2.33149 39.238 3.61994 40.1378 5.27652C41.0377 6.9331 41.4876 8.85556 41.4876 11.0439C41.4876 13.2322 41.0275 15.1547 40.1071 16.8112C39.1868 18.4678 37.8984 19.7665 36.2418 20.7073C34.6057 21.6276 32.7037 22.0878 30.5358 22.0878ZM30.5358 18.3758C31.906 18.3758 33.1025 18.0997 34.125 17.5475C35.1476 16.9749 35.9452 16.1363 36.5179 15.0319C37.0905 13.9276 37.3769 12.588 37.3769 11.0132C37.3769 9.43843 37.0905 8.10907 36.5179 7.02513C35.9657 5.9412 35.1783 5.12313 34.1557 4.57094C33.1331 3.99829 31.9265 3.71197 30.5358 3.71197C29.186 3.71197 27.9998 3.99829 26.9772 4.57094C25.9546 5.12313 25.157 5.9412 24.5844 7.02513C24.0117 8.10907 23.7254 9.44865 23.7254 11.0439C23.7254 12.6187 24.0015 13.9582 24.5537 15.0626C25.1263 16.1466 25.9239 16.9749 26.9465 17.5475C27.9691 18.0997 29.1655 18.3758 30.5358 18.3758Z" fill="#006351"/>
<path d="M0 21.781V0.306759H9.60204C11.1564 0.306759 12.4959 0.57263 13.6208 1.10437C14.7661 1.61566 15.6557 2.36215 16.2897 3.34383C16.9237 4.3255 17.2407 5.5117 17.2407 6.90241C17.2407 8.06815 17.026 9.09073 16.5965 9.97015C16.167 10.8291 15.5637 11.5449 14.7865 12.1176C14.0094 12.6698 13.0788 13.089 11.9949 13.3753C10.9314 13.6617 9.75543 13.8048 8.46698 13.8048H4.01875V21.781H0ZM13.8662 21.781L8.65104 13.1606L12.455 12.363L18.3451 21.781H13.8662ZM4.01875 10.2769H9.26459C10.5121 10.2769 11.4734 9.9906 12.1483 9.41796C12.8436 8.84531 13.1913 8.01702 13.1913 6.93309C13.1913 5.8696 12.8436 5.09244 12.1483 4.6016C11.4734 4.09031 10.4917 3.83466 9.20323 3.83466H4.01875V10.2769Z" fill="#006351"/>
<path d="M151.867 34.8593C151.867 40.5979 147.215 45.25 141.477 45.25C135.738 45.25 131.086 40.5979 131.086 34.8593C131.086 29.1206 135.738 24.4685 141.477 24.4685C147.215 24.4685 151.867 29.1206 151.867 34.8593Z" fill="white" stroke="#006351" stroke-width="1.5"/>
<ellipse cx="134.858" cy="35.3408" rx="0.970405" ry="0.970405" fill="#006351"/>
<path fill-rule="evenodd" clip-rule="evenodd" d="M141.682 32.5082L141.682 32.5083L141.682 32.5083C142.533 33.2671 143.933 34.5161 143.933 35.895C143.933 37.3805 143.141 38.3402 141.496 38.3402C139.851 38.3402 139.059 37.3805 139.059 35.895C139.059 34.5161 140.459 33.2671 141.309 32.5083C141.375 32.4496 141.437 32.3939 141.496 32.3413C141.554 32.3939 141.616 32.4496 141.682 32.5082ZM141.967 34.3519L142.282 33.3031L143.033 34.1002L141.967 34.3519ZM140.661 33.3031L140.976 34.3519L139.911 34.1002L140.661 33.3031Z" fill="#006351"/>
<path fill-rule="evenodd" clip-rule="evenodd" d="M139.658 37.4734L140.695 37.0204L140.576 38.0796C140.214 37.9692 139.896 37.7558 139.658 37.4734Z" fill="white"/>
<path fill-rule="evenodd" clip-rule="evenodd" d="M142.395 38.0681C142.766 37.9622 143.092 37.7486 143.337 37.4631L142.275 36.9991L142.395 38.0681Z" fill="white"/>
<ellipse cx="148.132" cy="35.3408" rx="0.970405" ry="0.970405" fill="#006351"/>
</svg>
