<svg width="172" height="46" viewBox="0 0 172 46" fill="none" xmlns="http://www.w3.org/2000/svg">
<g id="FFXIV-KOR MIRAPRI GENERATOR">
<g id="Group 25">
<g id="Vector">
<path d="M165.623 45.6995L159.641 37.1018H155.823L156.304 33.2538H159.491L165.533 24.6561H170.854L163.519 34.9072L171.365 45.6995H165.623ZM153.148 45.6995V24.6561H157.807V45.6995H153.148Z" fill="url(#paint0_linear_472_1250)"/>
<path d="M115.478 46C113.273 46 111.359 45.549 109.736 44.6472C108.112 43.7253 106.86 42.4527 105.978 40.8293C105.096 39.206 104.655 37.3121 104.655 35.1476C104.655 32.9832 105.106 31.0993 106.008 29.496C106.93 27.8726 108.203 26.61 109.826 25.7082C111.449 24.8063 113.333 24.3554 115.478 24.3554C117.702 24.3554 119.616 24.8163 121.219 25.7382C122.843 26.6401 124.095 27.9027 124.977 29.526C125.859 31.1293 126.3 33.0132 126.3 35.1777C126.3 37.3421 125.849 39.236 124.947 40.8594C124.045 42.4827 122.773 43.7453 121.129 44.6472C119.506 45.549 117.622 46 115.478 46ZM115.478 41.671C116.7 41.671 117.762 41.4406 118.664 40.9796C119.566 40.4986 120.268 39.7771 120.769 38.8152C121.27 37.8331 121.52 36.6106 121.52 35.1476C121.52 33.6846 121.27 32.4821 120.769 31.5402C120.288 30.5782 119.596 29.8667 118.694 29.4058C117.792 28.9248 116.72 28.6843 115.478 28.6843C114.275 28.6843 113.213 28.9248 112.291 29.4058C111.389 29.8667 110.688 30.5782 110.187 31.5402C109.686 32.5022 109.435 33.7147 109.435 35.1777C109.435 36.6407 109.676 37.8532 110.157 38.8152C110.658 39.7771 111.359 40.4986 112.261 40.9796C113.163 41.4406 114.235 41.671 115.478 41.671Z" fill="url(#paint1_linear_472_1250)"/>
<path d="M84.9631 45.6995V24.6561H95.4246C96.8876 24.6561 98.1001 24.9066 99.0621 25.4077C100.024 25.8887 100.746 26.55 101.227 27.3918C101.728 28.2335 101.978 29.2055 101.978 30.3078C101.978 31.1896 101.808 32.0413 101.467 32.863C101.146 33.6647 100.525 34.306 99.6032 34.787V34.8471C100.545 35.1477 101.317 35.6989 101.918 36.5005C102.519 37.3022 102.82 38.2441 102.82 39.3263C102.82 40.5889 102.539 41.7012 101.978 42.6632C101.437 43.6252 100.645 44.3767 99.6032 44.9178C98.5611 45.4389 97.2784 45.6995 95.7553 45.6995H84.9631ZM89.6227 41.7613H95.0639C96.0459 41.7613 96.7874 41.5609 97.2885 41.1601C97.7895 40.7392 98.04 40.0779 98.04 39.176C98.04 38.3543 97.7995 37.7431 97.3185 37.3422C96.8576 36.9414 96.1962 36.741 95.3344 36.741H89.6227V41.7613ZM89.6227 33.1636H95.0639C95.8655 33.1636 96.4768 32.9733 96.8977 32.5925C97.3386 32.1916 97.559 31.6004 97.559 30.8188C97.559 30.0572 97.3285 29.4861 96.8676 29.1053C96.4267 28.7045 95.7252 28.504 94.7633 28.504H89.6227V33.1636Z" fill="url(#paint2_linear_472_1250)"/>
<path d="M77.0482 45.6995L71.0659 37.1018H67.2481L67.7291 33.2538H70.9156L76.9581 24.6561H82.279L74.9439 34.9072L82.7901 45.6995H77.0482ZM64.5725 45.6995V24.6561H69.2321V45.6995H64.5725Z" fill="url(#paint3_linear_472_1250)"/>
<path d="M50.6994 46C48.4949 46 46.581 45.549 44.9576 44.6472C43.3343 43.7253 42.0817 42.4527 41.1999 40.8293C40.3181 39.206 39.8772 37.3121 39.8772 35.1476C39.8772 32.9832 40.3281 31.0993 41.2299 29.496C42.1518 27.8726 43.4245 26.61 45.0478 25.7082C46.6712 24.8063 48.555 24.3554 50.6994 24.3554C52.924 24.3554 54.838 24.8163 56.4413 25.7382C58.0646 26.6401 59.3172 27.9027 60.199 29.526C61.0808 31.1293 61.5217 33.0132 61.5217 35.1777C61.5217 37.3421 61.0708 39.236 60.1689 40.8594C59.2671 42.4827 57.9945 43.7453 56.3511 44.6472C54.7277 45.549 52.8439 46 50.6994 46ZM50.6994 41.671C51.922 41.671 52.9841 41.4406 53.886 40.9796C54.7879 40.4986 55.4893 39.7771 55.9903 38.8152C56.4914 37.8331 56.7419 36.6106 56.7419 35.1476C56.7419 33.6846 56.4914 32.4821 55.9903 31.5402C55.5094 30.5782 54.8179 29.8667 53.9161 29.4058C53.0142 28.9248 51.942 28.6843 50.6994 28.6843C49.497 28.6843 48.4348 28.9248 47.5129 29.4058C46.611 29.8667 45.9096 30.5782 45.4086 31.5402C44.9075 32.5022 44.657 33.7147 44.657 35.1777C44.657 36.6407 44.8975 37.8532 45.3785 38.8152C45.8795 39.7771 46.581 40.4986 47.4828 40.9796C48.3847 41.4406 49.4569 41.671 50.6994 41.671Z" fill="url(#paint4_linear_472_1250)"/>
<path d="M26.9039 46C24.6994 46 22.7854 45.549 21.1621 44.6472C19.5387 43.7253 18.2862 42.4527 17.4043 40.8293C16.5225 39.206 16.0816 37.3121 16.0816 35.1476C16.0816 32.9832 16.5325 31.0993 17.4344 29.496C18.3563 27.8726 19.6289 26.61 21.2523 25.7082C22.8756 24.8063 24.7595 24.3554 26.9039 24.3554C29.1285 24.3554 31.0424 24.8163 32.6457 25.7382C34.2691 26.6401 35.5217 27.9027 36.4035 29.526C37.2853 31.1293 37.7262 33.0132 37.7262 35.1777C37.7262 37.3421 37.2753 39.236 36.3734 40.8594C35.4716 42.4827 34.1989 43.7453 32.5555 44.6472C30.9322 45.549 29.0483 46 26.9039 46ZM26.9039 41.671C28.1264 41.671 29.1886 41.4406 30.0905 40.9796C30.9923 40.4986 31.6938 39.7771 32.1948 38.8152C32.6958 37.8331 32.9464 36.6106 32.9464 35.1476C32.9464 33.6846 32.6958 32.4821 32.1948 31.5402C31.7138 30.5782 31.0224 29.8667 30.1205 29.4058C29.2187 28.9248 28.1465 28.6843 26.9039 28.6843C25.7014 28.6843 24.6392 28.9248 23.7173 29.4058C22.8155 29.8667 22.114 30.5782 21.613 31.5402C21.112 32.5022 20.8615 33.7147 20.8615 35.1777C20.8615 36.6407 21.102 37.8532 21.583 38.8152C22.084 39.7771 22.7854 40.4986 23.6873 40.9796C24.5891 41.4406 25.6613 41.671 26.9039 41.671Z" fill="url(#paint5_linear_472_1250)"/>
<path d="M0 45.6995V24.6561H4.6596V41.611H15.3616V45.6995H0Z" fill="url(#paint6_linear_472_1250)"/>
<path d="M85.8567 21.3439L93.8832 0.30053H99.2343L107.321 21.3439H102.271L96.5888 5.20062H96.4986L90.6967 21.3439H85.8567ZM91.4182 17.4959V13.648H101.639V17.4959H91.4182Z" fill="url(#paint7_linear_472_1250)"/>
<path d="M79.897 21.3439L73.9147 12.7462H70.0968L70.5778 8.89823H73.7644L79.8068 0.30053H85.1278L77.7927 10.5516L85.6388 21.3439H79.897ZM67.4213 21.3439V0.30053H72.0809V21.3439H67.4213Z" fill="url(#paint8_linear_472_1250)"/>
<path d="M44.0963 21.3439V0.30053H48.1847L58.7665 12.8965H58.8267V0.30053H63.4562V21.3439H59.6985L48.786 8.23687H48.7259V21.3439H44.0963Z" fill="url(#paint9_linear_472_1250)"/>
<path d="M30.2207 21.6446C28.0162 21.6446 26.1023 21.1937 24.4789 20.2918C22.8556 19.3699 21.603 18.0973 20.7212 16.4739C19.8394 14.8506 19.3985 12.9567 19.3985 10.7922C19.3985 8.62777 19.8494 6.74389 20.7512 5.14059C21.6731 3.51724 22.9458 2.25464 24.5691 1.35279C26.1924 0.450929 28.0763 0 30.2207 0C32.4453 0 34.3593 0.460949 35.9626 1.38285C37.5859 2.28471 38.8385 3.54731 39.7203 5.17065C40.6021 6.77395 41.043 8.65783 41.043 10.8223C41.043 12.9867 40.5921 14.8806 39.6903 16.504C38.7884 18.1273 37.5158 19.3899 35.8724 20.2918C34.249 21.1937 32.3652 21.6446 30.2207 21.6446ZM30.2207 17.3157C31.4433 17.3157 32.5055 17.0852 33.4073 16.6242C34.3092 16.1432 35.0106 15.4218 35.5116 14.4598C36.0127 13.4778 36.2632 12.2552 36.2632 10.7922C36.2632 9.32921 36.0127 8.12674 35.5116 7.1848C35.0307 6.22282 34.3392 5.51135 33.4374 5.0504C32.5355 4.56941 31.4633 4.32892 30.2207 4.32892C29.0183 4.32892 27.9561 4.56941 27.0342 5.0504C26.1323 5.51135 25.4309 6.22282 24.9298 7.1848C24.4288 8.14678 24.1783 9.35928 24.1783 10.8223C24.1783 12.2853 24.4188 13.4978 24.8998 14.4598C25.4008 15.4218 26.1023 16.1432 27.0041 16.6242C27.906 17.0852 28.9782 17.3157 30.2207 17.3157Z" fill="url(#paint10_linear_472_1250)"/>
<path d="M0 21.3439V0.30053H9.86031C11.4035 0.30053 12.7362 0.571087 13.8585 1.1122C14.9809 1.63327 15.8527 2.38482 16.4739 3.36684C17.0952 4.34887 17.4059 5.5313 17.4059 6.91415C17.4059 8.11663 17.1754 9.14875 16.7144 10.0105C16.2535 10.8723 15.6222 11.5737 14.8205 12.1149C14.0189 12.656 13.0769 13.0668 11.9947 13.3474C10.9125 13.6079 9.75008 13.7382 8.50752 13.7382H4.6596V21.3439H0ZM13.3174 21.3439L8.50752 13.167L12.9266 12.2952L18.5181 21.3439H13.3174ZM4.6596 10.0105H9.19895C10.3413 10.0105 11.2131 9.76001 11.8143 9.25898C12.4356 8.75795 12.7463 8.02644 12.7463 7.06446C12.7463 6.10248 12.4456 5.40103 11.8444 4.96013C11.2432 4.51922 10.3513 4.29876 9.16889 4.29876H4.6596V10.0105Z" fill="url(#paint11_linear_472_1250)"/>
</g>
<circle id="Ellipse 16" cx="139.267" cy="35.0867" r="9.91327" fill="white" stroke="#13A99E" stroke-width="2"/>
<g id="Group 23">
<ellipse id="Ellipse 13" cx="133.02" cy="35.4019" rx="0.86124" ry="0.861241" fill="#13A89E"/>
<ellipse id="Ellipse 14" cx="145.548" cy="35.4019" rx="0.86124" ry="0.861241" fill="#13A89E"/>
<g id="Group 21">
<path id="Subtract" fill-rule="evenodd" clip-rule="evenodd" d="M139.372 33.1225L139.372 33.1225L139.373 33.1225C140.127 33.796 141.37 34.9044 141.37 36.1283C141.37 37.4467 140.667 38.2984 139.207 38.2984C137.747 38.2984 137.044 37.4467 137.044 36.1283C137.044 34.9044 138.287 33.796 139.042 33.1225C139.1 33.0705 139.155 33.0211 139.207 32.9744C139.259 33.021 139.314 33.0705 139.372 33.1225ZM139.626 34.7587L139.905 33.8279L140.571 34.5354L139.626 34.7587ZM138.467 33.8279L138.746 34.7587L137.8 34.5354L138.467 33.8279Z" fill="#13A89E"/>
<path id="Intersect" fill-rule="evenodd" clip-rule="evenodd" d="M137.575 37.5294L138.495 37.1274L138.39 38.0674C138.068 37.9695 137.786 37.78 137.575 37.5294Z" fill="white"/>
<path id="Intersect_2" fill-rule="evenodd" clip-rule="evenodd" d="M140.006 38.0573C140.336 37.9634 140.625 37.7737 140.842 37.5204L139.9 37.1086L140.006 38.0573Z" fill="white"/>
</g>
</g>
</g>
</g>
<defs>
<linearGradient id="paint0_linear_472_1250" x1="175.551" y1="-8.44899" x2="-147.663" y2="86.5167" gradientUnits="userSpaceOnUse">
<stop stop-color="#15B79E"/>
<stop offset="1" stop-color="#096B9B"/>
</linearGradient>
<linearGradient id="paint1_linear_472_1250" x1="175.551" y1="-8.44899" x2="-147.663" y2="86.5167" gradientUnits="userSpaceOnUse">
<stop stop-color="#15B79E"/>
<stop offset="1" stop-color="#096B9B"/>
</linearGradient>
<linearGradient id="paint2_linear_472_1250" x1="175.551" y1="-8.44899" x2="-147.663" y2="86.5167" gradientUnits="userSpaceOnUse">
<stop stop-color="#15B79E"/>
<stop offset="1" stop-color="#096B9B"/>
</linearGradient>
<linearGradient id="paint3_linear_472_1250" x1="175.551" y1="-8.44899" x2="-147.663" y2="86.5167" gradientUnits="userSpaceOnUse">
<stop stop-color="#15B79E"/>
<stop offset="1" stop-color="#096B9B"/>
</linearGradient>
<linearGradient id="paint4_linear_472_1250" x1="175.551" y1="-8.44899" x2="-147.663" y2="86.5167" gradientUnits="userSpaceOnUse">
<stop stop-color="#15B79E"/>
<stop offset="1" stop-color="#096B9B"/>
</linearGradient>
<linearGradient id="paint5_linear_472_1250" x1="175.551" y1="-8.44899" x2="-147.663" y2="86.5167" gradientUnits="userSpaceOnUse">
<stop stop-color="#15B79E"/>
<stop offset="1" stop-color="#096B9B"/>
</linearGradient>
<linearGradient id="paint6_linear_472_1250" x1="175.551" y1="-8.44899" x2="-147.663" y2="86.5167" gradientUnits="userSpaceOnUse">
<stop stop-color="#15B79E"/>
<stop offset="1" stop-color="#096B9B"/>
</linearGradient>
<linearGradient id="paint7_linear_472_1250" x1="175.551" y1="-8.44899" x2="-147.663" y2="86.5167" gradientUnits="userSpaceOnUse">
<stop stop-color="#15B79E"/>
<stop offset="1" stop-color="#096B9B"/>
</linearGradient>
<linearGradient id="paint8_linear_472_1250" x1="175.551" y1="-8.44899" x2="-147.663" y2="86.5167" gradientUnits="userSpaceOnUse">
<stop stop-color="#15B79E"/>
<stop offset="1" stop-color="#096B9B"/>
</linearGradient>
<linearGradient id="paint9_linear_472_1250" x1="175.551" y1="-8.44899" x2="-147.663" y2="86.5167" gradientUnits="userSpaceOnUse">
<stop stop-color="#15B79E"/>
<stop offset="1" stop-color="#096B9B"/>
</linearGradient>
<linearGradient id="paint10_linear_472_1250" x1="175.551" y1="-8.44899" x2="-147.663" y2="86.5167" gradientUnits="userSpaceOnUse">
<stop stop-color="#15B79E"/>
<stop offset="1" stop-color="#096B9B"/>
</linearGradient>
<linearGradient id="paint11_linear_472_1250" x1="175.551" y1="-8.44899" x2="-147.663" y2="86.5167" gradientUnits="userSpaceOnUse">
<stop stop-color="#15B79E"/>
<stop offset="1" stop-color="#096B9B"/>
</linearGradient>
</defs>
</svg>
