<svg width="125" height="33" viewBox="0 0 125 33" fill="none" xmlns="http://www.w3.org/2000/svg">
<path d="M120.883 32.7683L116.152 26.3641H113.247L113.731 23.8332H115.976L120.707 17.3629H124.185L118.573 24.9116L124.559 32.7683H120.883ZM111.75 32.7683V17.3629H114.633V32.7683H111.75Z" fill="url(#paint0_linear_726_3503)"/>
<path d="M83.9335 32.9884C82.349 32.9884 80.9698 32.6583 79.7961 31.9981C78.6223 31.3232 77.7127 30.3915 77.0671 29.2031C76.4216 28.0147 76.0988 26.6282 76.0988 25.0436C76.0988 23.4738 76.4289 22.0946 77.0891 20.9062C77.7494 19.7178 78.6663 18.7934 79.8401 18.1332C81.0285 17.473 82.393 17.1429 83.9335 17.1429C85.5328 17.1429 86.9192 17.4803 88.093 18.1552C89.2667 18.8155 90.1764 19.7398 90.8219 20.9282C91.4675 22.1166 91.7903 23.4958 91.7903 25.0656C91.7903 26.6355 91.4602 28.0147 90.7999 29.2031C90.1397 30.3915 89.2154 31.3232 88.027 31.9981C86.8532 32.6583 85.4887 32.9884 83.9335 32.9884ZM83.9335 30.3255C84.9165 30.3255 85.7748 30.1274 86.5084 29.7313C87.242 29.3205 87.8142 28.7189 88.225 27.9267C88.6358 27.1344 88.8413 26.1734 88.8413 25.0436C88.8413 23.9139 88.6358 22.9602 88.225 22.1826C87.8289 21.405 87.264 20.8182 86.5304 20.422C85.7968 20.0112 84.9312 19.8058 83.9335 19.8058C82.9652 19.8058 82.1142 20.0112 81.3806 20.422C80.647 20.8182 80.0748 21.405 79.664 22.1826C79.2532 22.9602 79.0478 23.9212 79.0478 25.0656C79.0478 26.1954 79.2459 27.1564 79.642 27.9487C80.0528 28.7263 80.625 29.3205 81.3586 29.7313C82.0922 30.1274 82.9505 30.3255 83.9335 30.3255Z" fill="url(#paint1_linear_726_3503)"/>
<path d="M61.8555 32.7683V17.3629H69.096C70.1524 17.3629 71.0254 17.539 71.7149 17.8911C72.4192 18.2432 72.9474 18.7274 73.2995 19.3436C73.6516 19.9452 73.8277 20.6421 73.8277 21.4344C73.8277 22.1093 73.703 22.7548 73.4536 23.371C73.2041 23.9726 72.7126 24.4421 71.979 24.7795V24.8015C72.6833 25.0069 73.2702 25.4104 73.7397 26.012C74.2092 26.6135 74.4439 27.3324 74.4439 28.1687C74.4439 29.093 74.2458 29.9 73.8497 30.5896C73.4536 31.2791 72.874 31.8147 72.1111 32.1961C71.3628 32.5776 70.4385 32.7683 69.3381 32.7683H61.8555ZM64.7385 30.2375H69.1841C69.9617 30.2375 70.5412 30.0687 70.9227 29.7313C71.3041 29.3792 71.4949 28.8363 71.4949 28.1027C71.4949 27.4571 71.3041 26.973 70.9227 26.6502C70.5412 26.3274 70.0057 26.166 69.3161 26.166H64.7385V30.2375ZM64.7385 23.6351H69.096C69.7563 23.6351 70.2478 23.4811 70.5705 23.173C70.908 22.8502 71.0767 22.3734 71.0767 21.7425C71.0767 21.1409 70.9007 20.6861 70.5485 20.378C70.2111 20.0552 69.6682 19.8938 68.92 19.8938H64.7385V23.6351Z" fill="url(#paint2_linear_726_3503)"/>
<path d="M56.406 32.7683L51.6743 26.3641H48.7693L49.2535 23.8332H51.4983L56.2299 17.3629H59.7072L54.0952 24.9116L60.0813 32.7683H56.406ZM47.2728 32.7683V17.3629H50.1558V32.7683H47.2728Z" fill="url(#paint3_linear_726_3503)"/>
<path d="M36.9186 32.9884C35.3341 32.9884 33.9549 32.6583 32.7812 31.9981C31.6074 31.3232 30.6978 30.3915 30.0522 29.2031C29.4067 28.0147 29.0839 26.6282 29.0839 25.0436C29.0839 23.4738 29.414 22.0946 30.0742 20.9062C30.7345 19.7178 31.6515 18.7934 32.8252 18.1332C34.0136 17.473 35.3781 17.1429 36.9186 17.1429C38.5179 17.1429 39.9044 17.4803 41.0781 18.1552C42.2519 18.8155 43.1615 19.7398 43.8071 20.9282C44.4526 22.1166 44.7754 23.4958 44.7754 25.0656C44.7754 26.6355 44.4453 28.0147 43.7851 29.2031C43.1248 30.3915 42.2005 31.3232 41.0121 31.9981C39.8383 32.6583 38.4739 32.9884 36.9186 32.9884ZM36.9186 30.3255C37.9017 30.3255 38.76 30.1274 39.4935 29.7313C40.2271 29.3205 40.7993 28.7189 41.2101 27.9267C41.621 27.1344 41.8264 26.1734 41.8264 25.0436C41.8264 23.9139 41.621 22.9602 41.2101 22.1826C40.814 21.405 40.2491 20.8182 39.5156 20.422C38.782 20.0112 37.9163 19.8058 36.9186 19.8058C35.9503 19.8058 35.0993 20.0112 34.3657 20.422C33.6322 20.8182 33.06 21.405 32.6491 22.1826C32.2383 22.9602 32.0329 23.9212 32.0329 25.0656C32.0329 26.1954 32.231 27.1564 32.6271 27.9487C33.0379 28.7263 33.6101 29.3205 34.3437 29.7313C35.0773 30.1274 35.9356 30.3255 36.9186 30.3255Z" fill="url(#paint4_linear_726_3503)"/>
<path d="M19.456 32.9884C17.8715 32.9884 16.4923 32.6583 15.3186 31.9981C14.1448 31.3232 13.2352 30.3915 12.5896 29.2031C11.9441 28.0147 11.6213 26.6282 11.6213 25.0436C11.6213 23.4738 11.9514 22.0946 12.6116 20.9062C13.2719 19.7178 14.1888 18.7934 15.3626 18.1332C16.551 17.473 17.9155 17.1429 19.456 17.1429C21.0553 17.1429 22.4417 17.4803 23.6155 18.1552C24.7892 18.8155 25.6989 19.7398 26.3444 20.9282C26.99 22.1166 27.3128 23.4958 27.3128 25.0656C27.3128 26.6355 26.9827 28.0147 26.3224 29.2031C25.6622 30.3915 24.7379 31.3232 23.5495 31.9981C22.3757 32.6583 21.0112 32.9884 19.456 32.9884ZM19.456 30.3255C20.439 30.3255 21.2973 30.1274 22.0309 29.7313C22.7645 29.3205 23.3367 28.7189 23.7475 27.9267C24.1583 27.1344 24.3638 26.1734 24.3638 25.0436C24.3638 23.9139 24.1583 22.9602 23.7475 22.1826C23.3514 21.405 22.7865 20.8182 22.0529 20.422C21.3194 20.0112 20.4537 19.8058 19.456 19.8058C18.4877 19.8058 17.6367 20.0112 16.9031 20.422C16.1695 20.8182 15.5973 21.405 15.1865 22.1826C14.7757 22.9602 14.5703 23.9212 14.5703 25.0656C14.5703 26.1954 14.7684 27.1564 15.1645 27.9487C15.5753 28.7263 16.1475 29.3205 16.8811 29.7313C17.6147 30.1274 18.473 30.3255 19.456 30.3255Z" fill="url(#paint5_linear_726_3503)"/>
<path d="M0 32.7683V17.3629H2.88301V30.2375H11.0039V32.7683H0Z" fill="url(#paint6_linear_726_3503)"/>
<path d="M62.3551 15.6255L68.3412 0.220066H71.6864L77.7165 15.6255H74.5474L70.0358 3.30115H69.9698L65.3482 15.6255H62.3551ZM66.0744 12.5664V10.0355H73.9092V12.5664H66.0744Z" fill="url(#paint7_linear_726_3503)"/>
<path d="M58.5122 15.6255L53.7805 9.22123H50.8755L51.3597 6.69034H53.6045L58.3361 0.220066H61.8134L56.2014 7.76872L62.1875 15.6255H58.5122ZM49.379 15.6255V0.220066H52.262V15.6255H49.379Z" fill="url(#paint8_linear_726_3503)"/>
<path d="M32.2602 15.6255V0.220066H34.7691L43.2641 10.1676H43.3081V0.220066H46.1691V15.6255H43.9683L35.1652 5.23783H35.1212V15.6255H32.2602Z" fill="url(#paint9_linear_726_3503)"/>
<path d="M21.9061 15.8456C20.3216 15.8456 18.9424 15.5155 17.7687 14.8552C16.5949 14.1803 15.6853 13.2487 15.0397 12.0602C14.3941 10.8718 14.0714 9.48533 14.0714 7.90078C14.0714 6.33089 14.4015 4.95174 15.0617 3.76332C15.7219 2.5749 16.6389 1.65058 17.8127 0.990348C19.0011 0.330116 20.3656 0 21.9061 0C23.5053 0 24.8918 0.337452 26.0656 1.01236C27.2393 1.67259 28.149 2.59691 28.7945 3.78533C29.4401 4.97375 29.7629 6.3529 29.7629 7.92278C29.7629 9.49267 29.4328 10.8718 28.7725 12.0602C28.1123 13.2487 27.188 14.1803 25.9995 14.8552C24.8258 15.5155 23.4613 15.8456 21.9061 15.8456ZM21.9061 13.1826C22.8891 13.1826 23.7474 12.9846 24.481 12.5884C25.2146 12.1776 25.7868 11.5761 26.1976 10.7838C26.6084 9.99151 26.8138 9.03051 26.8138 7.90078C26.8138 6.77105 26.6084 5.81738 26.1976 5.03977C25.8015 4.26216 25.2366 3.67529 24.503 3.27915C23.7694 2.86834 22.9038 2.66293 21.9061 2.66293C20.9378 2.66293 20.0868 2.86834 19.3532 3.27915C18.6196 3.67529 18.0474 4.26216 17.6366 5.03977C17.2258 5.81738 17.0204 6.77838 17.0204 7.92278C17.0204 9.05251 17.2185 10.0135 17.6146 10.8058C18.0254 11.5834 18.5976 12.1776 19.3312 12.5884C20.0648 12.9846 20.9231 13.1826 21.9061 13.1826Z" fill="url(#paint10_linear_726_3503)"/>
<path d="M0 15.6255V0.220066H6.88842C8.00348 0.220066 8.96448 0.4108 9.77143 0.792267C10.5931 1.15906 11.2313 1.69458 11.6861 2.39883C12.1409 3.10308 12.3683 3.95404 12.3683 4.95173C12.3683 5.78802 12.2143 6.52161 11.9062 7.1525C11.5981 7.76872 11.1653 8.28223 10.6077 8.69304C10.0502 9.08918 9.38263 9.38995 8.60502 9.59536C7.84209 9.80076 6.99846 9.90347 6.07413 9.90347H2.88301V15.6255H0ZM9.94749 15.6255L6.20618 9.4413L8.93514 8.8691L13.1606 15.6255H9.94749ZM2.88301 7.37258H6.64633C7.54132 7.37258 8.23089 7.16717 8.71506 6.75636C9.2139 6.34555 9.46332 5.75134 9.46332 4.97374C9.46332 4.2108 9.2139 3.65327 8.71506 3.30115C8.23089 2.93435 7.52664 2.75096 6.60232 2.75096H2.88301V7.37258Z" fill="url(#paint11_linear_726_3503)"/>
<path d="M108.736 25.0078C108.736 29.0076 105.494 32.2501 101.494 32.2501C97.4939 32.2501 94.2515 29.0076 94.2515 25.0078C94.2515 21.008 97.4939 17.7655 101.494 17.7655C105.494 17.7655 108.736 21.008 108.736 25.0078Z" fill="white" stroke="#13A99E" stroke-width="1.5"/>
<circle cx="96.746" cy="25.3531" r="0.69616" fill="#10989D"/>
<path fill-rule="evenodd" clip-rule="evenodd" d="M101.641 23.3212L101.641 23.3212L101.641 23.3212C102.251 23.8655 103.255 24.7615 103.255 25.7508C103.255 26.8165 102.687 27.505 101.507 27.505C100.327 27.505 99.7588 26.8165 99.7588 25.7508C99.7588 24.7615 100.763 23.8655 101.373 23.3212C101.421 23.2791 101.465 23.2392 101.507 23.2014C101.549 23.2392 101.594 23.2791 101.641 23.3212ZM101.845 24.6438L102.071 23.8914L102.61 24.4632L101.845 24.6438ZM100.909 23.8914L101.135 24.6438L100.37 24.4632L100.909 23.8914Z" fill="#10989D"/>
<path fill-rule="evenodd" clip-rule="evenodd" d="M100.189 26.8831L100.933 26.5581L100.848 27.318C100.588 27.2388 100.36 27.0857 100.189 26.8831Z" fill="white"/>
<path fill-rule="evenodd" clip-rule="evenodd" d="M102.152 27.3096C102.419 27.2337 102.653 27.0804 102.828 26.8756L102.067 26.5427L102.152 27.3096Z" fill="white"/>
<circle cx="106.268" cy="25.3531" r="0.69616" fill="#10989D"/>
<defs>
<linearGradient id="paint0_linear_726_3503" x1="142.034" y1="8.55984" x2="102.358" y2="113.462" gradientUnits="userSpaceOnUse">
<stop stop-color="#15B79E"/>
<stop offset="1" stop-color="#096B9B"/>
</linearGradient>
<linearGradient id="paint1_linear_726_3503" x1="142.034" y1="8.55984" x2="102.358" y2="113.462" gradientUnits="userSpaceOnUse">
<stop stop-color="#15B79E"/>
<stop offset="1" stop-color="#096B9B"/>
</linearGradient>
<linearGradient id="paint2_linear_726_3503" x1="142.034" y1="8.55984" x2="102.358" y2="113.462" gradientUnits="userSpaceOnUse">
<stop stop-color="#15B79E"/>
<stop offset="1" stop-color="#096B9B"/>
</linearGradient>
<linearGradient id="paint3_linear_726_3503" x1="142.034" y1="8.55984" x2="102.358" y2="113.462" gradientUnits="userSpaceOnUse">
<stop stop-color="#15B79E"/>
<stop offset="1" stop-color="#096B9B"/>
</linearGradient>
<linearGradient id="paint4_linear_726_3503" x1="142.034" y1="8.55984" x2="102.358" y2="113.462" gradientUnits="userSpaceOnUse">
<stop stop-color="#15B79E"/>
<stop offset="1" stop-color="#096B9B"/>
</linearGradient>
<linearGradient id="paint5_linear_726_3503" x1="142.034" y1="8.55984" x2="102.358" y2="113.462" gradientUnits="userSpaceOnUse">
<stop stop-color="#15B79E"/>
<stop offset="1" stop-color="#096B9B"/>
</linearGradient>
<linearGradient id="paint6_linear_726_3503" x1="142.034" y1="8.55984" x2="102.358" y2="113.462" gradientUnits="userSpaceOnUse">
<stop stop-color="#15B79E"/>
<stop offset="1" stop-color="#096B9B"/>
</linearGradient>
<linearGradient id="paint7_linear_726_3503" x1="142.034" y1="8.55984" x2="102.358" y2="113.462" gradientUnits="userSpaceOnUse">
<stop stop-color="#15B79E"/>
<stop offset="1" stop-color="#096B9B"/>
</linearGradient>
<linearGradient id="paint8_linear_726_3503" x1="142.034" y1="8.55984" x2="102.358" y2="113.462" gradientUnits="userSpaceOnUse">
<stop stop-color="#15B79E"/>
<stop offset="1" stop-color="#096B9B"/>
</linearGradient>
<linearGradient id="paint9_linear_726_3503" x1="142.034" y1="8.55984" x2="102.358" y2="113.462" gradientUnits="userSpaceOnUse">
<stop stop-color="#15B79E"/>
<stop offset="1" stop-color="#096B9B"/>
</linearGradient>
<linearGradient id="paint10_linear_726_3503" x1="142.034" y1="8.55984" x2="102.358" y2="113.462" gradientUnits="userSpaceOnUse">
<stop stop-color="#15B79E"/>
<stop offset="1" stop-color="#096B9B"/>
</linearGradient>
<linearGradient id="paint11_linear_726_3503" x1="142.034" y1="8.55984" x2="102.358" y2="113.462" gradientUnits="userSpaceOnUse">
<stop stop-color="#15B79E"/>
<stop offset="1" stop-color="#096B9B"/>
</linearGradient>
</defs>
</svg>
